<svg width="40.000000" height="40.000000" viewBox="0 0 40 40" fill="none" xmlns="http://www.w3.org/2000/svg" xmlns:xlink="http://www.w3.org/1999/xlink">
	<desc>
			Created with Pixso.
	</desc>
	<defs>
		<clipPath id="clip0_287">
			<rect id="Frame" rx="-0.500000" width="39.000000" height="39.000000" transform="translate(0.499939 0.500000)" fill="white" fill-opacity="0"/>
		</clipPath>
	</defs>
	<g clip-path="url(#clip0_287)">
		<path id="Vector" d="M19.99 33.75C17.28 33.75 14.62 32.94 12.36 31.43C10.09 29.92 8.33 27.77 7.29 25.26C6.25 22.74 5.98 19.98 6.51 17.31C7.04 14.65 8.35 12.2 10.27 10.27C12.2 8.35 14.65 7.04 17.31 6.51C19.98 5.98 22.74 6.25 25.26 7.29C27.77 8.33 29.92 10.09 31.43 12.36C32.94 14.62 33.74 17.28 33.74 20C33.74 20.33 33.88 20.64 34.11 20.88C34.35 21.11 34.66 21.25 34.99 21.25C35.33 21.25 35.64 21.11 35.88 20.88C36.11 20.64 36.24 20.33 36.24 20C36.24 16.78 35.29 13.64 33.51 10.97C31.72 8.29 29.18 6.21 26.21 4.98C23.24 3.75 19.98 3.43 16.82 4.06C13.67 4.68 10.78 6.23 8.5 8.5C6.23 10.78 4.68 13.67 4.06 16.82C3.43 19.98 3.75 23.24 4.98 26.21C6.21 29.18 8.29 31.72 10.97 33.51C13.64 35.29 16.78 36.25 19.99 36.25C20.33 36.25 20.64 36.11 20.88 35.88C21.11 35.64 21.24 35.33 21.24 35C21.24 34.66 21.11 34.35 20.88 34.11C20.64 33.88 20.33 33.75 19.99 33.75Z" fill="#888888" fill-opacity="1.000000" fill-rule="nonzero"/>
		<path id="Vector" d="M20.49 29C20.8 29 21.1 28.88 21.31 28.68C21.53 28.47 21.65 28.2 21.65 27.91L21.65 27.18C23.57 26.7 24.99 25.07 24.99 23.13C25 22.83 24.96 22.53 24.89 22.24C24.67 21.29 24.12 20.45 23.32 19.85C22.52 19.24 21.52 18.91 20.49 18.91C19.47 18.91 18.58 18.23 18.36 17.3C18.29 17 18.3 16.69 18.37 16.4C18.45 16.1 18.59 15.82 18.8 15.58C19 15.35 19.26 15.15 19.55 15.02C19.85 14.89 20.17 14.82 20.49 14.82C20.82 14.82 21.14 14.89 21.43 15.02C21.73 15.15 21.99 15.34 22.19 15.58C22.4 15.82 22.54 16.1 22.62 16.39C22.69 16.69 22.7 17 22.63 17.29C22.56 17.58 22.62 17.87 22.79 18.11C22.95 18.36 23.21 18.53 23.51 18.59C23.82 18.65 24.13 18.6 24.39 18.44C24.65 18.28 24.83 18.04 24.89 17.76C24.96 17.46 24.99 17.17 24.99 16.86C24.99 14.92 23.57 13.29 21.65 12.81L21.65 12.08C21.65 11.79 21.53 11.52 21.31 11.31C21.1 11.11 20.8 11 20.49 11C20.19 11 19.89 11.11 19.68 11.31C19.46 11.52 19.34 11.79 19.34 12.08L19.34 12.81C17.42 13.29 15.99 14.92 15.99 16.86C15.99 17.17 16.03 17.46 16.09 17.76C16.32 18.7 16.87 19.54 17.67 20.14C18.47 20.75 19.47 21.08 20.49 21.08C21.07 21.08 21.63 21.3 22.03 21.68C22.44 22.07 22.67 22.58 22.68 23.13C22.68 23.67 22.45 24.19 22.04 24.57C21.63 24.95 21.07 25.17 20.49 25.17C20.17 25.17 19.85 25.1 19.55 24.97C19.26 24.84 19 24.64 18.8 24.41C18.59 24.17 18.45 23.89 18.37 23.59C18.3 23.3 18.29 22.99 18.36 22.69C18.39 22.55 18.4 22.41 18.37 22.27C18.34 22.12 18.28 21.99 18.2 21.87C18.12 21.75 18.01 21.65 17.88 21.57C17.76 21.49 17.62 21.43 17.47 21.4C17.17 21.34 16.85 21.4 16.6 21.56C16.34 21.71 16.16 21.96 16.09 22.24C16.03 22.53 15.99 22.82 15.99 23.13C15.99 25.07 17.42 26.7 19.34 27.18L19.34 27.91C19.34 28.2 19.46 28.47 19.68 28.68C19.89 28.88 20.19 29 20.49 29Z" fill="#888888" fill-opacity="1.000000" fill-rule="nonzero"/>
		<path id="Vector" d="M30.8 26.72C30.6 26.53 30.33 26.42 30.04 26.42C29.75 26.42 29.48 26.53 29.28 26.72L24.31 31.29C24.21 31.39 24.13 31.5 24.08 31.62C24.02 31.74 23.99 31.87 23.99 32C24 32.13 24.02 32.26 24.08 32.38C24.13 32.5 24.21 32.61 24.31 32.7C24.41 32.8 24.53 32.87 24.66 32.92C24.79 32.97 24.93 33 25.08 33C25.22 32.99 25.36 32.97 25.49 32.92C25.62 32.87 25.74 32.8 25.84 32.7L30.04 28.83L32.4 31C32.5 31.09 32.61 31.17 32.75 31.22C32.88 31.27 33.02 31.29 33.16 31.29C33.3 31.29 33.44 31.27 33.57 31.22C33.7 31.17 33.82 31.09 33.92 31L37.76 27.47L37.76 28.43C37.76 29.35 38.96 29.81 39.67 29.16C39.88 28.96 39.99 28.7 39.99 28.43L39.99 25.03C39.99 24.46 39.49 24 38.88 24L35.19 24C34.89 24 34.61 24.1 34.4 24.3C33.69 24.95 34.19 26.06 35.19 26.06L36.23 26.06L33.16 28.89L30.8 26.72Z" fill="#888888" fill-opacity="1.000000" fill-rule="evenodd"/>
	</g>
</svg>
