<svg width="40.000000" height="38.000000" viewBox="0 0 40 38" fill="none" xmlns="http://www.w3.org/2000/svg" xmlns:xlink="http://www.w3.org/1999/xlink">
	<desc>
			Created with Pixso.
	</desc>
	<defs>
		<clipPath id="clip0_297">
			<rect id="Frame" rx="-0.500000" width="39.000000" height="36.614197" transform="translate(0.404785 0.500000)" fill="white" fill-opacity="0"/>
		</clipPath>
	</defs>
	<g clip-path="url(#clip0_297)">
		<path id="Vector" d="M34.05 5.85C30.12 1.89 23.64 2.09 19.9 6.2C16.16 2.09 9.68 1.89 5.75 5.85C1.84 9.74 1.98 16.15 6 19.91C3.94 21.87 5.12 25.41 7.92 25.76C7.76 27.68 9.39 29.44 11.32 29.4C11.44 31.52 13.56 33.03 15.59 32.47C16.26 34.99 19.46 35.85 21.3 34C22.35 32.96 23.18 32.3 23.23 30.73C24.96 30.68 26.45 29.17 26.48 27.44C28.22 27.41 29.74 25.89 29.76 24.15C31.57 24.12 33.14 22.49 33.06 20.65L34.05 19.65C37.85 15.85 37.85 9.65 34.05 5.85ZM7.5 21.5L8.43 20.56C8.54 20.45 8.68 20.36 8.83 20.3C8.98 20.23 9.14 20.2 9.3 20.2C10.39 20.19 10.95 21.54 10.17 22.31L9.24 23.24C8.04 24.35 6.39 22.7 7.5 21.5ZM10.09 25.99C10.09 25.66 10.22 25.35 10.46 25.11L11.39 24.18C11.5 24.07 11.64 23.98 11.79 23.91C11.94 23.85 12.1 23.82 12.26 23.82C13.35 23.82 13.91 25.16 13.13 25.93L12.31 26.75C12.06 27.04 11.71 27.23 11.33 27.22C10.66 27.24 10.08 26.65 10.09 25.99ZM13.85 30.04C13.37 29.58 13.37 28.76 13.85 28.3L14.67 27.47C15.15 26.9 15.99 26.83 16.53 27.36C17.01 27.84 17.01 28.63 16.53 29.11L15.6 30.04C15.12 30.52 14.33 30.52 13.85 30.04ZM20.69 31.52L19.76 32.46C19.65 32.57 19.51 32.66 19.36 32.72C19.21 32.79 19.05 32.82 18.89 32.82C18.73 32.82 18.57 32.79 18.42 32.72C18.27 32.66 18.13 32.57 18.02 32.46C17.54 32 17.54 31.17 18.02 30.71L18.95 29.78C19.43 29.29 20.21 29.29 20.69 29.78C21.17 30.24 21.17 31.06 20.69 31.52ZM30.51 21.61C30.06 22.09 29.23 22.09 28.77 21.61L23.92 16.76L22.38 18.3L27.23 23.15C27.71 23.64 27.71 24.42 27.23 24.9C26.75 25.38 25.96 25.38 25.48 24.9L20.71 20.13L20.63 20.05L19.09 21.59L19.17 21.67L23.94 26.44C24.42 26.93 24.42 27.71 23.94 28.19C23.46 28.67 22.68 28.67 22.19 28.19L22.19 28.19C21.31 27.34 20.07 27.05 18.95 27.35C18.6 25.89 17.13 24.79 15.66 24.82C15.59 23.25 14.27 21.84 12.7 21.67C12.91 18.98 9.96 17.13 7.63 18.45C4.39 15.56 4.19 10.47 7.29 7.39C10.37 4.28 15.46 4.49 18.36 7.74L15.66 10.44L17.82 12.6C19.48 14.26 22.04 14.49 23.94 13.28L30.52 19.86C31 20.35 31 21.13 30.51 21.61ZM32.51 18.11L32.17 18.44C32.14 18.4 32.1 18.36 32.06 18.32L24.03 10.29L23.26 11.06C22.18 12.13 20.44 12.13 19.36 11.06L18.74 10.44L21.79 7.39C29.19 0.57 39.32 10.71 32.51 18.11Z" fill="#888888" fill-opacity="1.000000" fill-rule="nonzero"/>
	</g>
</svg>
