<svg width="40.000000" height="40.000000" viewBox="0 0 40 40" fill="none" xmlns="http://www.w3.org/2000/svg" xmlns:xlink="http://www.w3.org/1999/xlink">
	<desc>
			Created with Pixso.
	</desc>
	<defs>
		<clipPath id="clip0_283">
			<rect id="Frame" rx="-0.500000" width="39.000000" height="39.000000" transform="translate(-0.452515 0.500000)" fill="white" fill-opacity="0"/>
		</clipPath>
	</defs>
	<g clip-path="url(#clip0_283)">
		<path id="Vector" d="M19.04 21.25C19.04 21.58 18.91 21.89 18.68 22.13C18.44 22.36 18.12 22.5 17.79 22.5L10.29 22.5C9.96 22.5 9.64 22.36 9.41 22.13C9.17 21.89 9.04 21.58 9.04 21.25C9.04 20.91 9.17 20.6 9.41 20.36C9.64 20.13 9.96 20 10.29 20L17.79 20C18.12 20 18.44 20.13 18.68 20.36C18.91 20.6 19.04 20.91 19.04 21.25ZM17.79 15L10.29 15C9.96 15 9.64 15.13 9.41 15.36C9.17 15.6 9.04 15.91 9.04 16.25C9.04 16.58 9.17 16.89 9.41 17.13C9.64 17.36 9.96 17.5 10.29 17.5L17.79 17.5C18.12 17.5 18.44 17.36 18.68 17.13C18.91 16.89 19.04 16.58 19.04 16.25C19.04 15.91 18.91 15.6 18.68 15.36C18.44 15.13 18.12 15 17.79 15ZM35.29 25.22L35.29 35C35.29 35.22 35.24 35.43 35.13 35.62C35.02 35.82 34.86 35.97 34.67 36.09C34.48 36.2 34.27 36.26 34.05 36.26C33.82 36.26 33.61 36.2 33.42 36.09L29.67 33.94L25.92 36.09C25.73 36.2 25.51 36.26 25.29 36.26C25.07 36.26 24.85 36.2 24.66 36.09C24.47 35.97 24.31 35.82 24.21 35.62C24.1 35.43 24.04 35.22 24.04 35L24.04 31.25L5.29 31.25C4.63 31.25 3.99 30.98 3.52 30.51C3.06 30.04 2.79 29.41 2.79 28.75L2.79 8.75C2.79 8.08 3.06 7.45 3.52 6.98C3.99 6.51 4.63 6.25 5.29 6.25L32.79 6.25C33.46 6.25 34.09 6.51 34.56 6.98C35.03 7.45 35.29 8.08 35.29 8.75L35.29 13.52C36.08 14.27 36.71 15.18 37.14 16.19C37.57 17.19 37.79 18.28 37.79 19.37C37.79 20.46 37.57 21.55 37.14 22.55C36.71 23.56 36.08 24.47 35.29 25.22ZM24.04 28.75L24.04 25.22C22.68 23.91 21.82 22.16 21.61 20.28C21.4 18.4 21.85 16.51 22.89 14.92C23.92 13.34 25.48 12.17 27.29 11.61C29.1 11.05 31.04 11.15 32.79 11.87L32.79 8.75L5.29 8.75L5.29 28.75L24.04 28.75ZM32.79 26.87C31.8 27.28 30.74 27.5 29.67 27.5C28.59 27.5 27.53 27.28 26.54 26.87L26.54 32.84L29.04 31.41C29.23 31.3 29.45 31.25 29.66 31.25C29.88 31.25 30.09 31.3 30.28 31.41L32.78 32.84L32.79 26.87ZM35.29 19.37C35.29 18.26 34.96 17.17 34.34 16.24C33.73 15.32 32.85 14.6 31.82 14.17C30.79 13.75 29.66 13.64 28.57 13.85C27.48 14.07 26.48 14.61 25.69 15.39C24.9 16.18 24.37 17.18 24.15 18.27C23.93 19.36 24.04 20.49 24.47 21.52C24.9 22.55 25.62 23.43 26.54 24.05C27.47 24.67 28.55 25 29.67 25C30.41 25 31.14 24.85 31.82 24.57C32.5 24.28 33.12 23.87 33.65 23.35C34.17 22.83 34.58 22.21 34.86 21.52C35.15 20.84 35.29 20.11 35.29 19.37Z" fill="#888888" fill-opacity="1.000000" fill-rule="nonzero"/>
	</g>
</svg>
