<svg width="40.000000" height="40.000000" viewBox="0 0 40 40" fill="none" xmlns="http://www.w3.org/2000/svg" xmlns:xlink="http://www.w3.org/1999/xlink">
	<desc>
			Created with Pixso.
	</desc>
	<defs>
		<clipPath id="clip0_279">
			<rect id="Frame" rx="-0.500000" width="39.000000" height="39.000000" transform="translate(-0.404968 0.500000)" fill="white" fill-opacity="0"/>
		</clipPath>
	</defs>
	<g clip-path="url(#clip0_279)">
		<path id="Vector" d="M20.34 11.25L20.34 17.97L26.03 15.13C26.33 14.98 26.67 14.95 26.99 15.06C27.3 15.16 27.56 15.39 27.71 15.68C27.86 15.98 27.88 16.32 27.78 16.64C27.67 16.95 27.45 17.21 27.15 17.36L19.65 21.11C19.46 21.21 19.25 21.25 19.03 21.24C18.82 21.23 18.61 21.17 18.43 21.06C18.25 20.95 18.1 20.79 18 20.6C17.89 20.42 17.84 20.21 17.84 20L17.84 11.25C17.84 10.91 17.97 10.6 18.21 10.36C18.44 10.13 18.76 10 19.09 10C19.42 10 19.74 10.13 19.97 10.36C20.21 10.6 20.34 10.91 20.34 11.25ZM19.09 33.75C16.37 33.75 13.71 32.94 11.45 31.43C9.19 29.92 7.43 27.77 6.39 25.26C5.35 22.74 5.07 19.98 5.6 17.31C6.13 14.65 7.44 12.2 9.37 10.27C11.29 8.35 13.74 7.04 16.41 6.51C19.07 5.98 21.84 6.25 24.35 7.29C26.86 8.33 29.01 10.09 30.52 12.36C32.03 14.62 32.84 17.28 32.84 20C32.84 20.33 32.97 20.64 33.21 20.88C33.44 21.11 33.76 21.25 34.09 21.25C34.42 21.25 34.74 21.11 34.97 20.88C35.21 20.64 35.34 20.33 35.34 20C35.34 16.78 34.39 13.64 32.6 10.97C30.82 8.29 28.28 6.21 25.31 4.98C22.34 3.75 19.07 3.43 15.92 4.06C12.77 4.68 9.87 6.23 7.6 8.5C5.33 10.78 3.78 13.67 3.15 16.82C2.53 19.98 2.85 23.24 4.08 26.21C5.31 29.18 7.39 31.72 10.06 33.51C12.73 35.29 15.88 36.25 19.09 36.25C19.42 36.25 19.74 36.11 19.97 35.88C20.21 35.64 20.34 35.33 20.34 35C20.34 34.66 20.21 34.35 19.97 34.11C19.74 33.88 19.42 33.75 19.09 33.75ZM35.3 34.67C35.34 34.83 35.36 35 35.34 35.17C35.32 35.33 35.27 35.49 35.18 35.63C35.1 35.78 34.99 35.91 34.86 36.01C34.73 36.11 34.58 36.18 34.42 36.23C34.26 36.27 34.09 36.28 33.92 36.26C33.76 36.23 33.6 36.18 33.46 36.09C33.32 36.01 33.19 35.9 33.09 35.76C32.99 35.63 32.92 35.48 32.88 35.32C32.44 33.65 30.88 32.5 29.09 32.5C27.3 32.5 25.74 33.65 25.3 35.32C25.23 35.58 25.07 35.82 24.85 35.99C24.63 36.15 24.37 36.24 24.09 36.25C23.98 36.24 23.87 36.23 23.77 36.2C23.45 36.12 23.17 35.91 23.01 35.62C22.84 35.33 22.8 34.99 22.88 34.67C23.29 33.17 24.24 31.87 25.56 31.03C24.86 30.33 24.38 29.44 24.19 28.47C23.99 27.5 24.09 26.49 24.47 25.58C24.85 24.67 25.49 23.88 26.31 23.33C27.13 22.79 28.1 22.49 29.09 22.49C30.08 22.49 31.05 22.79 31.87 23.33C32.69 23.88 33.33 24.67 33.71 25.58C34.09 26.49 34.19 27.5 33.99 28.47C33.8 29.44 33.32 30.33 32.62 31.03C33.94 31.87 34.89 33.17 35.3 34.67ZM26.59 27.5C26.59 27.99 26.74 28.47 27.01 28.88C27.29 29.3 27.68 29.62 28.13 29.8C28.59 29.99 29.09 30.04 29.58 29.95C30.06 29.85 30.51 29.61 30.86 29.26C31.21 28.91 31.45 28.47 31.54 27.98C31.64 27.5 31.59 27 31.4 26.54C31.21 26.08 30.89 25.69 30.48 25.42C30.07 25.14 29.58 25 29.09 25C28.43 25 27.79 25.26 27.32 25.73C26.85 26.2 26.59 26.83 26.59 27.5Z" fill="#888888" fill-opacity="1.000000" fill-rule="nonzero"/>
	</g>
</svg>
