<svg width="40.000000" height="40.000000" viewBox="0 0 40 40" fill="none" xmlns="http://www.w3.org/2000/svg" xmlns:xlink="http://www.w3.org/1999/xlink">
	<desc>
			Created with Pixso.
	</desc>
	<defs>
		<clipPath id="clip0_301">
			<rect id="Frame" rx="-0.500000" width="39.000000" height="39.000000" transform="translate(0.357300 0.500000)" fill="white" fill-opacity="0"/>
		</clipPath>
	</defs>
	<g clip-path="url(#clip0_301)">
		<path id="Vector" d="M38.1 23.5C37.97 23.59 37.82 23.67 37.66 23.71C37.5 23.75 37.34 23.76 37.18 23.73C37.01 23.71 36.86 23.65 36.72 23.57C36.57 23.49 36.45 23.38 36.35 23.25C35.6 22.23 34.62 21.41 33.49 20.85C32.36 20.28 31.12 19.99 29.85 20C29.61 20 29.37 19.92 29.16 19.79C28.96 19.65 28.8 19.46 28.7 19.23C28.64 19.08 28.6 18.91 28.6 18.75C28.6 18.58 28.64 18.41 28.7 18.26C28.8 18.03 28.96 17.84 29.16 17.7C29.37 17.57 29.61 17.5 29.85 17.5C30.55 17.5 31.24 17.3 31.84 16.93C32.43 16.56 32.91 16.03 33.22 15.4C33.53 14.77 33.65 14.06 33.58 13.36C33.51 12.67 33.25 12 32.82 11.45C32.39 10.89 31.81 10.47 31.15 10.23C30.5 9.98 29.78 9.93 29.1 10.07C28.41 10.21 27.78 10.55 27.27 11.03C26.76 11.51 26.4 12.13 26.22 12.81C26.18 12.97 26.11 13.12 26.01 13.25C25.91 13.38 25.79 13.49 25.65 13.57C25.5 13.66 25.35 13.71 25.19 13.73C25.02 13.76 24.86 13.75 24.7 13.71C24.54 13.67 24.39 13.59 24.26 13.49C24.13 13.4 24.02 13.27 23.93 13.13C23.85 12.99 23.8 12.83 23.77 12.67C23.75 12.51 23.76 12.34 23.8 12.18C24.04 11.24 24.5 10.37 25.14 9.64C25.78 8.9 26.58 8.33 27.48 7.96C28.38 7.59 29.36 7.44 30.33 7.51C31.3 7.59 32.24 7.89 33.07 8.39C33.9 8.89 34.61 9.58 35.13 10.4C35.65 11.22 35.97 12.15 36.07 13.12C36.17 14.09 36.04 15.07 35.69 15.98C35.34 16.88 34.79 17.7 34.07 18.36C35.77 19.09 37.25 20.26 38.36 21.74C38.46 21.88 38.53 22.03 38.57 22.18C38.61 22.34 38.62 22.51 38.59 22.67C38.57 22.83 38.51 22.99 38.43 23.13C38.35 23.27 38.23 23.4 38.1 23.5ZM29.68 33.12C29.77 33.26 29.84 33.42 29.86 33.59C29.89 33.75 29.88 33.92 29.84 34.09C29.8 34.25 29.73 34.41 29.63 34.54C29.53 34.68 29.4 34.79 29.25 34.87C29.11 34.96 28.95 35.01 28.78 35.03C28.61 35.05 28.44 35.04 28.28 34.99C28.12 34.94 27.97 34.87 27.84 34.76C27.71 34.65 27.6 34.52 27.52 34.37C26.73 33.04 25.61 31.93 24.27 31.16C22.92 30.4 21.4 29.99 19.85 29.99C18.3 29.99 16.78 30.4 15.44 31.16C14.09 31.93 12.97 33.04 12.18 34.37C12.11 34.52 12 34.65 11.87 34.76C11.74 34.87 11.59 34.94 11.42 34.99C11.26 35.04 11.09 35.05 10.93 35.03C10.76 35.01 10.6 34.96 10.45 34.87C10.3 34.79 10.18 34.68 10.08 34.54C9.98 34.41 9.9 34.25 9.86 34.09C9.82 33.92 9.82 33.75 9.84 33.59C9.87 33.42 9.93 33.26 10.02 33.12C11.23 31.04 13.08 29.4 15.29 28.45C14.05 27.49 13.13 26.17 12.68 24.67C12.22 23.17 12.25 21.57 12.75 20.08C13.25 18.6 14.21 17.31 15.48 16.39C16.76 15.48 18.29 14.99 19.85 14.99C21.42 14.99 22.95 15.48 24.22 16.39C25.5 17.31 26.45 18.6 26.96 20.08C27.46 21.57 27.48 23.17 27.03 24.67C26.57 26.17 25.66 27.49 24.41 28.45C26.62 29.4 28.47 31.04 29.68 33.12ZM19.85 27.5C20.84 27.5 21.81 27.2 22.63 26.65C23.45 26.1 24.09 25.32 24.47 24.41C24.85 23.49 24.95 22.49 24.76 21.52C24.56 20.55 24.09 19.66 23.39 18.96C22.69 18.26 21.8 17.78 20.83 17.59C19.86 17.4 18.85 17.5 17.94 17.88C17.03 18.25 16.24 18.9 15.7 19.72C15.15 20.54 14.85 21.51 14.85 22.5C14.85 23.82 15.38 25.09 16.32 26.03C17.25 26.97 18.53 27.5 19.85 27.5ZM11.1 18.75C11.1 18.41 10.97 18.1 10.74 17.86C10.5 17.63 10.18 17.5 9.85 17.5C9.15 17.5 8.46 17.3 7.87 16.93C7.27 16.56 6.79 16.03 6.49 15.4C6.18 14.77 6.05 14.06 6.12 13.36C6.19 12.67 6.46 12 6.89 11.45C7.32 10.89 7.89 10.47 8.55 10.23C9.21 9.98 9.92 9.93 10.61 10.07C11.3 10.21 11.93 10.55 12.44 11.03C12.95 11.51 13.31 12.13 13.48 12.81C13.57 13.13 13.77 13.4 14.06 13.57C14.35 13.74 14.69 13.79 15.01 13.71C15.33 13.62 15.6 13.42 15.77 13.13C15.94 12.84 15.99 12.5 15.91 12.18C15.66 11.24 15.2 10.37 14.56 9.64C13.92 8.9 13.12 8.33 12.22 7.96C11.32 7.59 10.35 7.44 9.38 7.51C8.41 7.59 7.47 7.89 6.64 8.39C5.8 8.89 5.1 9.58 4.58 10.4C4.05 11.22 3.73 12.15 3.64 13.12C3.54 14.09 3.67 15.07 4.02 15.98C4.36 16.88 4.92 17.7 5.63 18.36C3.94 19.09 2.46 20.26 1.35 21.74C1.15 22.01 1.07 22.34 1.11 22.67C1.16 23 1.34 23.3 1.6 23.49C1.87 23.69 2.2 23.78 2.53 23.73C2.86 23.69 3.15 23.51 3.35 23.25C4.11 22.23 5.09 21.41 6.22 20.85C7.34 20.28 8.59 19.99 9.85 20C10.18 20 10.5 19.86 10.74 19.63C10.97 19.39 11.1 19.08 11.1 18.75Z" fill="#888888" fill-opacity="1.000000" fill-rule="nonzero"/>
	</g>
</svg>
