<svg width="40.000000" height="40.000000" viewBox="0 0 40 40" fill="none" xmlns="http://www.w3.org/2000/svg" xmlns:xlink="http://www.w3.org/1999/xlink">
	<desc>
			Created with Pixso.
	</desc>
	<defs>
		<clipPath id="clip0_293">
			<rect id="Frame" rx="-0.500000" width="39.000000" height="39.000000" transform="translate(0.452393 0.500000)" fill="white" fill-opacity="0"/>
		</clipPath>
	</defs>
	<g clip-path="url(#clip0_293)">
		<path id="Vector" d="M36.51 12.51C36.16 12.11 35.73 11.8 35.24 11.58C34.76 11.36 34.23 11.24 33.7 11.25L24.95 11.25L24.95 8.75C24.95 7.09 24.29 5.5 23.12 4.33C21.94 3.15 20.36 2.5 18.7 2.5C18.47 2.49 18.24 2.56 18.04 2.68C17.84 2.8 17.68 2.98 17.58 3.19L11.68 15L4.95 15C4.28 15 3.65 15.26 3.18 15.73C2.71 16.2 2.45 16.83 2.45 17.5L2.45 31.25C2.45 31.91 2.71 32.54 3.18 33.01C3.65 33.48 4.28 33.75 4.95 33.75L31.82 33.75C32.74 33.75 33.62 33.41 34.3 32.81C34.99 32.2 35.43 31.37 35.54 30.46L37.42 15.46C37.49 14.94 37.44 14.4 37.28 13.89C37.13 13.38 36.86 12.91 36.51 12.51ZM4.95 17.5L11.2 17.5L11.2 31.25L4.95 31.25L4.95 17.5ZM34.94 15.15L33.06 30.15C33.03 30.45 32.88 30.73 32.65 30.93C32.42 31.13 32.13 31.25 31.82 31.25L13.7 31.25L13.7 16.54L19.43 5.07C20.28 5.24 21.05 5.7 21.6 6.37C22.15 7.04 22.45 7.88 22.45 8.75L22.45 12.5C22.45 12.83 22.58 13.14 22.81 13.38C23.05 13.61 23.37 13.75 23.7 13.75L33.7 13.75C33.87 13.74 34.05 13.78 34.21 13.86C34.37 13.93 34.52 14.04 34.64 14.17C34.75 14.3 34.84 14.46 34.89 14.63C34.94 14.8 34.96 14.98 34.94 15.15Z" fill="#888888" fill-opacity="1.000000" fill-rule="nonzero"/>
	</g>
</svg>
