<svg width="40.000000" height="40.000000" viewBox="0 0 40 40" fill="none" xmlns="http://www.w3.org/2000/svg" xmlns:xlink="http://www.w3.org/1999/xlink">
	<desc>
			Created with Pixso.
	</desc>
	<defs>
		<clipPath id="clip0_275">
			<rect id="Frame" rx="-0.500000" width="39.000000" height="39.000000" transform="translate(-0.357422 0.500000)" fill="white" fill-opacity="0"/>
		</clipPath>
	</defs>
	<g clip-path="url(#clip0_275)">
		<path id="Vector" d="M19.14 3.75C15.92 3.75 12.78 4.7 10.11 6.48C7.44 8.27 5.35 10.81 4.12 13.78C2.89 16.75 2.57 20.01 3.2 23.17C3.83 26.32 5.37 29.21 7.65 31.49C9.92 33.76 12.82 35.31 15.97 35.93C19.12 36.56 22.39 36.24 25.36 35.01C28.33 33.78 30.86 31.7 32.65 29.02C34.43 26.35 35.39 23.21 35.39 20C35.38 15.69 33.67 11.56 30.62 8.51C27.58 5.46 23.45 3.75 19.14 3.75ZM19.14 33.75C16.42 33.75 13.76 32.94 11.5 31.43C9.24 29.92 7.47 27.77 6.43 25.26C5.39 22.74 5.12 19.98 5.65 17.31C6.18 14.65 7.49 12.2 9.41 10.27C11.34 8.35 13.79 7.04 16.46 6.51C19.12 5.98 21.89 6.25 24.4 7.29C26.91 8.33 29.06 10.09 30.57 12.36C32.08 14.62 32.89 17.28 32.89 20C32.88 23.64 31.43 27.14 28.86 29.71C26.28 32.29 22.78 33.74 19.14 33.75ZM29.14 20C29.14 20.33 29.01 20.64 28.77 20.88C28.54 21.11 28.22 21.25 27.89 21.25L19.14 21.25C18.81 21.25 18.49 21.11 18.25 20.88C18.02 20.64 17.89 20.33 17.89 20L17.89 11.25C17.89 10.91 18.02 10.6 18.25 10.36C18.49 10.13 18.81 10 19.14 10C19.47 10 19.79 10.13 20.02 10.36C20.26 10.6 20.39 10.91 20.39 11.25L20.39 18.75L27.89 18.75C28.22 18.75 28.54 18.88 28.77 19.11C29.01 19.35 29.14 19.66 29.14 20Z" fill="#888888" fill-opacity="1.000000" fill-rule="nonzero"/>
	</g>
</svg>
