<svg width="227.000000" height="164.000000" viewBox="0 0 227 164" fill="none" xmlns="http://www.w3.org/2000/svg" xmlns:xlink="http://www.w3.org/1999/xlink">
	<desc>
			Created with Pixso.
	</desc>
	<defs>
		<clipPath id="clip0_304">
			<rect id="101" rx="-0.500000" width="226.000000" height="163.000000" transform="translate(0.500000 0.500000)" fill="white" fill-opacity="0"/>
		</clipPath>
	</defs>
	<rect id="101" rx="-0.500000" width="226.000000" height="163.000000" transform="translate(0.500000 0.500000)" fill="#FFFFFF" fill-opacity="0"/>
	<g clip-path="url(#clip0_304)">
		<path id="Vector" d="M19.86 135.97L19.86 152.65L15.36 152.65L15.36 145.67L4.49 145.67L4.49 152.65L0 152.65L0 135.97C0 135.29 0.13 134.62 0.39 134C0.65 133.37 1.03 132.8 1.51 132.32C1.98 131.84 2.55 131.46 3.18 131.2C3.8 130.94 4.48 130.81 5.15 130.81L14.7 130.81C16.07 130.81 17.38 131.35 18.35 132.32C19.31 133.29 19.86 134.6 19.86 135.97ZM15.36 141.17L15.36 136.66C15.36 136.48 15.32 136.31 15.26 136.14C15.19 135.98 15.09 135.83 14.97 135.71C14.84 135.58 14.69 135.48 14.53 135.41C14.36 135.34 14.19 135.31 14.01 135.31L5.84 135.31C5.66 135.31 5.49 135.34 5.32 135.41C5.16 135.48 5.01 135.58 4.89 135.71C4.76 135.83 4.66 135.98 4.59 136.14C4.53 136.31 4.49 136.48 4.49 136.66L4.49 141.17L15.36 141.17Z" fill="#FFFFFF" fill-opacity="1.000000" fill-rule="nonzero"/>
		<path id="Vector" d="M38.29 147.76C38.42 147.63 38.52 147.48 38.58 147.32C38.65 147.16 38.69 146.98 38.69 146.8L38.69 130.81L43.18 130.81L43.18 147.49C43.18 148.17 43.05 148.84 42.79 149.47C42.53 150.09 42.15 150.66 41.67 151.14C41.19 151.62 40.63 152 40 152.26C39.37 152.52 38.7 152.65 38.03 152.65L28.48 152.65C27.12 152.65 25.8 152.11 24.84 151.14C23.87 150.17 23.33 148.86 23.33 147.49L23.33 130.81L27.82 130.81L27.82 146.8C27.82 147.16 27.96 147.5 28.22 147.76C28.47 148.01 28.81 148.15 29.16 148.15L37.34 148.15C37.51 148.15 37.69 148.12 37.85 148.05C38.02 147.98 38.17 147.88 38.29 147.76Z" fill="#FFFFFF" fill-opacity="1.000000" fill-rule="nonzero"/>
		<path id="Vector" d="M65.67 135.31L57.66 135.31L57.66 152.65L53.16 152.65L53.16 135.31L45.15 135.31L45.15 130.81L65.67 130.81L65.67 135.31Z" fill="#FFFFFF" fill-opacity="1.000000" fill-rule="nonzero"/>
		<path id="Vector" d="M72.6 130.81L84.12 130.81C84.79 130.81 85.45 130.94 86.06 131.2C86.67 131.45 87.23 131.82 87.7 132.29C88.17 132.76 88.54 133.32 88.8 133.94C89.05 134.55 89.18 135.21 89.18 135.87L89.18 147.59C89.18 148.26 89.05 148.91 88.8 149.53C88.54 150.14 88.17 150.7 87.7 151.17C87.23 151.64 86.67 152.01 86.06 152.27C85.45 152.52 84.79 152.65 84.12 152.65L72.6 152.65C71.26 152.65 69.97 152.12 69.03 151.17C68.08 150.22 67.54 148.93 67.54 147.59L67.54 135.87C67.54 134.53 68.08 133.24 69.03 132.29C69.97 131.34 71.26 130.81 72.6 130.81ZM73.46 148.15L83.27 148.15C83.65 148.15 84.01 148 84.27 147.74C84.54 147.47 84.69 147.11 84.69 146.74L84.69 136.73C84.69 136.35 84.54 135.99 84.27 135.72C84.01 135.46 83.65 135.31 83.27 135.31L73.46 135.31C73.08 135.31 72.72 135.46 72.46 135.72C72.19 135.99 72.04 136.35 72.04 136.73L72.04 146.74C72.04 147.11 72.19 147.47 72.46 147.74C72.72 148 73.08 148.15 73.46 148.15Z" fill="#FFFFFF" fill-opacity="1.000000" fill-rule="nonzero"/>
		<path id="Vector" d="M97.29 147.76C97.54 148.01 97.89 148.15 98.24 148.15L111.79 148.15L111.79 152.65L97.56 152.65C96.88 152.65 96.21 152.52 95.58 152.26C94.96 152 94.39 151.62 93.91 151.14C93.43 150.66 93.05 150.09 92.79 149.47C92.53 148.84 92.4 148.17 92.4 147.49L92.4 135.97C92.4 135.29 92.53 134.62 92.79 134C93.05 133.37 93.43 132.8 93.91 132.32C94.39 131.84 94.96 131.46 95.58 131.2C96.21 130.94 96.88 130.81 97.55 130.81L111.51 130.81L111.51 135.31L98.24 135.31C98.07 135.31 97.89 135.34 97.73 135.41C97.56 135.48 97.42 135.58 97.29 135.71C97.16 135.83 97.07 135.98 97 136.14C96.93 136.31 96.89 136.48 96.89 136.66L96.89 146.8C96.9 147.16 97.04 147.5 97.29 147.76Z" fill="#FFFFFF" fill-opacity="1.000000" fill-rule="nonzero"/>
		<path id="Vector" d="M133.9 148.15L133.9 152.65L114.51 152.65L114.51 130.81L133.62 130.81L133.62 135.31L119.01 135.31L119.01 139.48L132.78 139.48L132.78 143.98L119.01 143.98L119.01 148.15L133.9 148.15Z" fill="#FFFFFF" fill-opacity="1.000000" fill-rule="nonzero"/>
		<path id="Vector" d="M158.6 130.81L158.6 152.63L153.03 152.63L141.55 137.83L141.55 152.65L137.06 152.65L137.06 130.81L142.12 130.81L154.11 146.38L154.11 130.81L158.6 130.81Z" fill="#FFFFFF" fill-opacity="1.000000" fill-rule="nonzero"/>
		<path id="Vector" d="M181.24 135.31L173.23 135.31L173.23 152.65L168.74 152.65L168.74 135.31L160.73 135.31L160.73 130.81L181.24 130.81L181.24 135.31Z" fill="#FFFFFF" fill-opacity="1.000000" fill-rule="nonzero"/>
		<path id="Vector" d="M202.76 148.15L202.76 152.65L183.37 152.65L183.37 130.81L202.48 130.81L202.48 135.31L187.86 135.31L187.86 139.48L201.63 139.48L201.63 143.98L187.86 143.98L187.86 148.15L202.76 148.15Z" fill="#FFFFFF" fill-opacity="1.000000" fill-rule="nonzero"/>
		<path id="Vector" d="M214.83 144.54L210.41 144.54L210.41 152.65L205.92 152.65L205.92 130.81L220.25 130.81C220.91 130.81 221.57 130.94 222.18 131.2C222.8 131.45 223.36 131.82 223.82 132.29C224.29 132.76 224.67 133.32 224.92 133.94C225.18 134.55 225.31 135.21 225.31 135.87L225.31 139.48C225.31 140.74 224.84 141.96 223.99 142.89C223.14 143.82 221.97 144.4 220.72 144.52L227 152.65L221.09 152.65L214.83 144.54ZM210.41 140.05L219.39 140.05C219.58 140.05 219.76 140.01 219.93 139.94C220.11 139.87 220.26 139.76 220.39 139.63C220.52 139.5 220.63 139.34 220.7 139.17C220.77 139 220.81 138.81 220.81 138.63L220.81 136.73C220.81 136.35 220.66 135.99 220.39 135.72C220.13 135.46 219.77 135.31 219.39 135.31L210.41 135.31L210.41 140.05Z" fill="#FFFFFF" fill-opacity="1.000000" fill-rule="nonzero"/>
		<path id="Vector" d="M0 162.58L2.13 157.02L3.29 157.02L5.46 162.58L4.3 162.58L3.82 161.32L1.58 161.32L1.13 162.58L0 162.58ZM1.84 160.44L3.56 160.44L2.69 158.19L1.84 160.44Z" fill="#FFFFFF" fill-opacity="1.000000" fill-rule="nonzero"/>
		<path id="Vector" d="M6.23 162.58L6.23 157.02L8.22 157.02C8.76 157.02 9.2 157.14 9.53 157.37C9.86 157.61 10.03 157.96 10.03 158.43C10.03 158.6 9.99 158.76 9.92 158.92C9.76 159.21 9.51 159.45 9.2 159.58C9.5 159.67 9.76 159.85 9.95 160.1C10.15 160.36 10.25 160.68 10.24 161C10.25 161.3 10.17 161.59 10.01 161.83C9.84 162.08 9.6 162.27 9.33 162.39C9.01 162.53 8.65 162.6 8.3 162.59L6.23 162.58ZM7.26 159.36L8.06 159.36C8.24 159.37 8.41 159.33 8.57 159.27C8.71 159.21 8.82 159.12 8.9 159C8.98 158.87 9.02 158.72 9.02 158.56C9.02 158.46 9 158.35 8.96 158.25C8.92 158.16 8.85 158.07 8.77 158C8.55 157.86 8.3 157.8 8.05 157.81L7.26 157.81L7.26 159.36ZM7.26 161.79L8.13 161.79C8.48 161.79 8.74 161.72 8.91 161.58C9 161.51 9.07 161.41 9.11 161.3C9.16 161.19 9.17 161.07 9.17 160.96C9.17 160.84 9.15 160.72 9.11 160.61C9.07 160.5 9 160.41 8.91 160.33C8.74 160.18 8.48 160.11 8.13 160.11L7.26 160.11L7.26 161.79Z" fill="#FFFFFF" fill-opacity="1.000000" fill-rule="nonzero"/>
		<path id="Vector" d="M12.36 162.58L12.36 157.96L10.82 157.96L10.82 157.02L14.93 157.02L14.93 157.96L13.4 157.96L13.4 162.58L12.36 162.58Z" fill="#FFFFFF" fill-opacity="1.000000" fill-rule="nonzero"/>
		<path id="Vector" d="M18.18 162.7C17.78 162.71 17.39 162.63 17.01 162.48C16.66 162.34 16.35 162.13 16.08 161.87C15.81 161.61 15.6 161.29 15.46 160.94C15.17 160.21 15.17 159.39 15.46 158.65C15.6 158.31 15.81 157.99 16.08 157.73C16.35 157.46 16.66 157.25 17.01 157.12C17.39 156.97 17.78 156.89 18.18 156.9C18.58 156.89 18.98 156.97 19.35 157.12C19.7 157.27 20.02 157.48 20.28 157.74C20.69 158.16 20.96 158.69 21.07 159.25C21.18 159.82 21.12 160.41 20.9 160.95C20.76 161.3 20.55 161.61 20.28 161.87C20.01 162.14 19.7 162.35 19.35 162.49C18.98 162.63 18.58 162.71 18.18 162.7ZM18.18 161.73C18.44 161.73 18.68 161.68 18.92 161.59C19.14 161.5 19.35 161.37 19.52 161.2C19.69 161.02 19.82 160.82 19.9 160.59C20 160.34 20.05 160.07 20.04 159.8C20.05 159.44 19.97 159.09 19.8 158.78C19.64 158.49 19.41 158.26 19.13 158.1C18.84 157.94 18.52 157.86 18.18 157.86C17.93 157.86 17.68 157.91 17.45 158C17.23 158.09 17.03 158.22 16.86 158.39C16.69 158.56 16.55 158.77 16.47 159C16.37 159.25 16.32 159.52 16.32 159.79C16.31 160.15 16.4 160.5 16.57 160.82C16.72 161.1 16.95 161.33 17.23 161.49C17.52 161.65 17.85 161.73 18.18 161.73Z" fill="#FFFFFF" fill-opacity="1.000000" fill-rule="nonzero"/>
		<path id="Vector" d="M22.18 162.58L22.18 157.02L23.18 157.02L25.4 160.65L24.99 160.65L27.12 157.02L28.1 157.02L28.1 162.58L27.1 162.58L27.11 158.37L27.31 158.44L25.51 161.43L24.78 161.43L22.94 158.44L23.11 158.37L23.13 162.58L22.18 162.58Z" fill="#FFFFFF" fill-opacity="1.000000" fill-rule="nonzero"/>
		<path id="Vector" d="M32.1 162.7C31.7 162.71 31.3 162.63 30.93 162.48C30.58 162.34 30.26 162.13 30 161.87C29.73 161.61 29.52 161.29 29.38 160.94C29.09 160.21 29.09 159.39 29.38 158.65C29.52 158.31 29.73 157.99 30 157.73C30.26 157.46 30.58 157.25 30.93 157.12C31.3 156.97 31.7 156.89 32.1 156.9C32.5 156.89 32.9 156.97 33.27 157.12C33.62 157.27 33.93 157.48 34.2 157.74C34.6 158.16 34.88 158.69 34.99 159.25C35.1 159.82 35.04 160.41 34.82 160.95C34.68 161.3 34.46 161.61 34.2 161.88C33.93 162.14 33.61 162.35 33.27 162.49C32.9 162.63 32.5 162.71 32.1 162.7ZM32.1 161.73C32.35 161.73 32.6 161.68 32.84 161.59C33.06 161.5 33.26 161.37 33.43 161.2C33.6 161.03 33.73 160.82 33.82 160.59C33.92 160.34 33.97 160.07 33.96 159.8C33.97 159.44 33.89 159.09 33.72 158.78C33.56 158.49 33.33 158.26 33.05 158.1C32.76 157.94 32.43 157.86 32.1 157.86C31.85 157.86 31.6 157.91 31.37 158C31.15 158.09 30.94 158.22 30.78 158.39C30.61 158.56 30.47 158.77 30.38 159C30.29 159.25 30.24 159.52 30.24 159.79C30.23 160.15 30.32 160.5 30.49 160.82C30.64 161.1 30.87 161.33 31.15 161.49C31.44 161.65 31.77 161.73 32.1 161.73Z" fill="#FFFFFF" fill-opacity="1.000000" fill-rule="nonzero"/>
		<path id="Vector" d="M36.1 162.58L36.1 157.02L39.69 157.02L39.69 157.93L37.13 157.93L37.13 159.29L38.09 159.29C38.7 159.29 39.19 159.43 39.56 159.71C39.93 159.99 40.11 160.4 40.11 160.94C40.12 161.25 40.04 161.57 39.87 161.83C39.7 162.09 39.46 162.28 39.17 162.4C38.83 162.54 38.46 162.61 38.09 162.6L36.1 162.58ZM37.13 161.79L38.01 161.79C38.34 161.79 38.59 161.72 38.77 161.57C38.86 161.49 38.93 161.4 38.98 161.29C39.03 161.18 39.05 161.06 39.04 160.94C39.05 160.82 39.03 160.7 38.98 160.59C38.94 160.48 38.87 160.38 38.78 160.3C38.57 160.14 38.31 160.06 38.05 160.08L37.13 160.08L37.13 161.79Z" fill="#FFFFFF" fill-opacity="1.000000" fill-rule="nonzero"/>
		<path id="Vector" d="M41.2 162.58L41.2 157.02L42.22 157.02L42.22 160.92L44.83 157.02L45.85 157.02L45.85 162.58L44.83 162.58L44.83 158.65L42.22 162.59L41.2 162.58Z" fill="#FFFFFF" fill-opacity="1.000000" fill-rule="nonzero"/>
		<path id="Vector" d="M47.1 162.68L46.73 161.73C46.89 161.69 47.04 161.62 47.18 161.53C47.31 161.46 47.42 161.35 47.5 161.23C47.59 161.07 47.66 160.89 47.7 160.71C47.75 160.44 47.79 160.17 47.8 159.9C47.82 159.57 47.83 159.17 47.83 158.7L47.83 157.02L51.82 157.02L51.82 162.58L50.79 162.58L50.79 157.96L48.82 157.96L48.82 158.66C48.82 159.23 48.8 159.73 48.76 160.15C48.74 160.51 48.68 160.86 48.59 161.21C48.53 161.47 48.42 161.72 48.27 161.94C48.14 162.13 47.97 162.28 47.78 162.4C47.57 162.53 47.34 162.62 47.1 162.68Z" fill="#FFFFFF" fill-opacity="1.000000" fill-rule="nonzero"/>
		<path id="Vector" d="M53.23 162.58L53.23 157.02L54.25 157.02L54.25 160.92L56.86 157.02L57.87 157.02L57.87 162.58L56.85 162.58L56.85 158.65L54.24 162.59L53.23 162.58Z" fill="#FFFFFF" fill-opacity="1.000000" fill-rule="nonzero"/>
		<path id="Vector" d="M61.18 162.58L61.18 157.02L65.77 157.02L65.77 162.58L64.74 162.58L64.74 157.96L62.21 157.96L62.21 162.58L61.18 162.58Z" fill="#FFFFFF" fill-opacity="1.000000" fill-rule="nonzero"/>
		<path id="Vector" d="M69.77 162.7C69.37 162.71 68.97 162.63 68.6 162.48C68.25 162.34 67.93 162.13 67.66 161.87C67.4 161.6 67.19 161.29 67.05 160.94C66.76 160.21 66.76 159.39 67.05 158.65C67.19 158.3 67.4 157.99 67.67 157.72C67.93 157.46 68.25 157.25 68.6 157.12C68.97 156.97 69.37 156.89 69.77 156.9C70.17 156.89 70.56 156.97 70.93 157.12C71.28 157.27 71.6 157.48 71.87 157.74C72.27 158.16 72.55 158.69 72.66 159.25C72.77 159.82 72.71 160.41 72.49 160.95C72.34 161.3 72.13 161.61 71.87 161.87C71.6 162.14 71.28 162.35 70.93 162.49C70.56 162.63 70.17 162.71 69.77 162.7ZM69.77 161.73C70.02 161.73 70.27 161.68 70.5 161.59C70.73 161.5 70.93 161.37 71.1 161.2C71.27 161.02 71.4 160.82 71.49 160.59C71.58 160.34 71.63 160.07 71.63 159.8C71.64 159.44 71.55 159.09 71.38 158.78C71.23 158.49 71 158.26 70.71 158.1C70.43 157.94 70.1 157.86 69.77 157.86C69.52 157.86 69.27 157.91 69.03 158C68.81 158.09 68.61 158.22 68.44 158.39C68.27 158.56 68.14 158.77 68.05 159C67.95 159.25 67.91 159.52 67.91 159.79C67.9 160.15 67.98 160.5 68.15 160.82C68.31 161.1 68.54 161.33 68.82 161.49C69.11 161.65 69.44 161.73 69.77 161.73Z" fill="#FFFFFF" fill-opacity="1.000000" fill-rule="nonzero"/>
		<path id="Vector" d="M77.26 162.58L77.26 157.96L75.25 157.96L75.25 158.66C75.25 159.23 75.22 159.79 75.15 160.35C75.1 160.74 75 161.12 74.84 161.48C74.72 161.76 74.53 162 74.29 162.18C74.04 162.36 73.75 162.49 73.45 162.56L73.09 161.71C73.3 161.66 73.5 161.58 73.67 161.46C73.84 161.33 73.96 161.16 74.03 160.96C74.13 160.67 74.19 160.38 74.21 160.07C74.24 159.7 74.26 159.23 74.26 158.66L74.26 157.01L78.3 157.01L78.3 162.58L77.26 162.58ZM73.09 163.99L73.09 161.71L73.75 161.74L74.1 161.63L79.19 161.63L79.19 163.99L78.21 163.99L78.21 162.58L74.07 162.58L74.07 163.99L73.09 163.99Z" fill="#FFFFFF" fill-opacity="1.000000" fill-rule="nonzero"/>
		<path id="Vector" d="M83.6 162.7C83.21 162.71 82.81 162.65 82.43 162.54C82.09 162.44 81.78 162.28 81.5 162.07L81.97 161.25C82.17 161.42 82.41 161.56 82.66 161.65C82.93 161.74 83.22 161.79 83.5 161.79C83.73 161.8 83.95 161.76 84.16 161.69C84.33 161.63 84.48 161.52 84.59 161.39C84.7 161.26 84.75 161.1 84.75 160.94C84.75 160.83 84.73 160.71 84.69 160.61C84.64 160.5 84.57 160.41 84.48 160.34C84.3 160.2 84.02 160.13 83.64 160.13L82.54 160.13L82.54 159.32L83.57 159.32C83.75 159.32 83.94 159.29 84.11 159.22C84.25 159.17 84.37 159.08 84.46 158.96C84.55 158.84 84.59 158.7 84.59 158.56C84.59 158.41 84.55 158.28 84.47 158.16C84.37 158.05 84.25 157.96 84.1 157.92C83.91 157.86 83.72 157.84 83.52 157.84C83.26 157.84 83.01 157.88 82.77 157.97C82.55 158.04 82.34 158.16 82.16 158.32L81.68 157.56C81.93 157.34 82.23 157.17 82.55 157.07C82.91 156.95 83.28 156.89 83.65 156.89C84.01 156.89 84.36 156.95 84.7 157.07C84.97 157.17 85.21 157.35 85.38 157.58C85.54 157.81 85.63 158.09 85.62 158.37C85.62 158.54 85.58 158.71 85.51 158.87C85.43 159.03 85.33 159.17 85.2 159.3C85.08 159.42 84.94 159.52 84.79 159.59C85.09 159.68 85.35 159.85 85.54 160.09C85.74 160.34 85.84 160.66 85.83 160.98C85.83 161.29 85.73 161.6 85.55 161.86C85.35 162.13 85.09 162.34 84.78 162.47C84.41 162.64 84.01 162.71 83.6 162.7Z" fill="#FFFFFF" fill-opacity="1.000000" fill-rule="nonzero"/>
		<path id="Vector" d="M86.28 162.58L88.41 157.02L89.56 157.02L91.74 162.58L90.58 162.58L90.1 161.32L87.87 161.32L87.41 162.58L86.28 162.58ZM88.12 160.44L89.84 160.44L88.97 158.19L88.12 160.44Z" fill="#FFFFFF" fill-opacity="1.000000" fill-rule="nonzero"/>
		<path id="Vector" d="M92.51 162.58L92.51 157.02L93.54 157.02L93.54 159.18L94.58 159.18L94.58 160.13L93.54 160.13L93.54 162.59L92.51 162.58ZM95.95 162.58L93.68 159.66L95.7 157.02L96.98 157.02L94.94 159.66L97.27 162.58L95.95 162.58Z" fill="#FFFFFF" fill-opacity="1.000000" fill-rule="nonzero"/>
		<path id="Vector" d="M97.54 162.58L99.67 157.02L100.82 157.02L103 162.58L101.84 162.58L101.36 161.32L99.13 161.32L98.67 162.58L97.54 162.58ZM99.38 160.44L101.1 160.44L100.23 158.19L99.38 160.44Z" fill="#FFFFFF" fill-opacity="1.000000" fill-rule="nonzero"/>
		<path id="Vector" d="M105.36 162.7C104.97 162.71 104.57 162.65 104.19 162.54C103.85 162.44 103.54 162.28 103.26 162.07L103.73 161.25C103.93 161.42 104.16 161.56 104.42 161.65C104.69 161.74 104.97 161.79 105.26 161.79C105.49 161.8 105.71 161.76 105.92 161.69C106.09 161.63 106.24 161.52 106.35 161.39C106.45 161.26 106.51 161.1 106.51 160.94C106.51 160.83 106.49 160.71 106.45 160.61C106.4 160.5 106.33 160.41 106.24 160.34C106.06 160.2 105.78 160.13 105.4 160.13L104.3 160.13L104.3 159.32L105.32 159.32C105.51 159.32 105.69 159.29 105.87 159.23C106.01 159.18 106.13 159.09 106.22 158.97C106.31 158.85 106.35 158.7 106.34 158.56C106.35 158.42 106.31 158.28 106.22 158.17C106.13 158.05 106 157.97 105.86 157.92C105.67 157.87 105.47 157.84 105.28 157.84C105.02 157.84 104.77 157.89 104.53 157.97C104.3 158.05 104.1 158.17 103.92 158.33L103.43 157.57C103.69 157.34 103.99 157.18 104.31 157.07C104.66 156.96 105.03 156.9 105.41 156.9C105.77 156.89 106.12 156.95 106.46 157.08C106.73 157.17 106.97 157.35 107.14 157.58C107.3 157.82 107.38 158.09 107.38 158.38C107.38 158.55 107.34 158.72 107.26 158.87C107.19 159.03 107.08 159.18 106.96 159.3C106.84 159.42 106.7 159.52 106.55 159.59C106.84 159.68 107.11 159.86 107.3 160.1C107.5 160.35 107.6 160.67 107.59 160.99C107.59 161.3 107.49 161.61 107.31 161.86C107.11 162.13 106.84 162.35 106.53 162.48C106.16 162.64 105.76 162.71 105.36 162.7Z" fill="#FFFFFF" fill-opacity="1.000000" fill-rule="nonzero"/>
		<path id="Vector" d="M110.93 162.58L110.93 157.02L111.96 157.02L111.96 160.92L114.57 157.02L115.58 157.02L115.58 162.58L114.56 162.58L114.56 158.65L111.95 162.59L110.93 162.58Z" fill="#FFFFFF" fill-opacity="1.000000" fill-rule="nonzero"/>
		<path id="Vector" d="M118.57 162.7C118.18 162.71 117.78 162.65 117.4 162.54C117.06 162.44 116.75 162.28 116.47 162.07L116.94 161.25C117.14 161.42 117.38 161.56 117.63 161.65C117.9 161.74 118.19 161.79 118.47 161.79C118.7 161.8 118.92 161.76 119.13 161.69C119.3 161.63 119.45 161.52 119.57 161.39C119.67 161.26 119.72 161.1 119.72 160.94C119.72 160.83 119.7 160.71 119.66 160.61C119.61 160.5 119.54 160.41 119.45 160.34C119.27 160.2 118.99 160.13 118.61 160.13L117.51 160.13L117.51 159.32L118.53 159.32C118.72 159.32 118.9 159.29 119.08 159.23C119.22 159.18 119.34 159.09 119.43 158.97C119.51 158.85 119.56 158.7 119.55 158.56C119.56 158.42 119.51 158.28 119.43 158.17C119.34 158.05 119.21 157.97 119.07 157.92C118.88 157.87 118.68 157.84 118.48 157.84C118.23 157.84 117.98 157.89 117.74 157.97C117.51 158.05 117.3 158.17 117.12 158.32L116.64 157.57C116.9 157.34 117.2 157.17 117.52 157.07C117.87 156.95 118.24 156.89 118.61 156.9C118.97 156.89 119.33 156.95 119.67 157.07C119.94 157.17 120.18 157.35 120.35 157.58C120.51 157.81 120.59 158.09 120.58 158.38C120.58 158.55 120.55 158.72 120.47 158.87C120.39 159.03 120.29 159.17 120.17 159.3C120.05 159.42 119.91 159.52 119.76 159.59C120.05 159.68 120.31 159.86 120.51 160.09C120.71 160.35 120.81 160.66 120.79 160.98C120.8 161.3 120.7 161.6 120.52 161.86C120.32 162.13 120.05 162.34 119.74 162.48C119.37 162.64 118.97 162.71 118.57 162.7Z" fill="#FFFFFF" fill-opacity="1.000000" fill-rule="nonzero"/>
		<path id="Vector" d="M123.35 162.58L124.98 160.26C124.6 160.19 124.25 160 123.99 159.72C123.74 159.44 123.62 159.07 123.63 158.7C123.62 158.38 123.71 158.06 123.88 157.79C124.05 157.53 124.3 157.33 124.58 157.21C124.92 157.07 125.29 157 125.65 157.01L127.73 157.01L127.73 162.58L126.7 162.58L126.7 160.4L126.02 160.4L124.55 162.58L123.35 162.58ZM125.68 159.56L126.7 159.56L126.7 157.88L125.73 157.88C125.45 157.87 125.18 157.94 124.96 158.09C124.86 158.16 124.79 158.25 124.74 158.36C124.69 158.47 124.67 158.58 124.68 158.7C124.67 158.82 124.69 158.94 124.73 159.05C124.78 159.16 124.84 159.26 124.93 159.34C125.1 159.48 125.35 159.56 125.68 159.56L125.68 159.56Z" fill="#FFFFFF" fill-opacity="1.000000" fill-rule="nonzero"/>
		<path id="Vector" d="M129.13 162.58L129.13 157.02L133.73 157.02L133.73 162.58L132.69 162.58L132.69 157.96L130.17 157.96L130.17 162.58L129.13 162.58Z" fill="#FFFFFF" fill-opacity="1.000000" fill-rule="nonzero"/>
		<path id="Vector" d="M137.72 162.7C137.32 162.71 136.93 162.63 136.55 162.48C136.2 162.34 135.89 162.13 135.62 161.87C135.35 161.61 135.14 161.29 135 160.94C134.71 160.21 134.71 159.39 135 158.65C135.14 158.31 135.35 157.99 135.62 157.73C135.89 157.46 136.2 157.25 136.55 157.12C136.93 156.97 137.32 156.89 137.72 156.9C138.12 156.89 138.52 156.97 138.89 157.12C139.24 157.27 139.56 157.48 139.83 157.75C140.23 158.16 140.5 158.69 140.62 159.25C140.73 159.82 140.67 160.41 140.45 160.95C140.3 161.3 140.09 161.61 139.83 161.88C139.56 162.14 139.24 162.35 138.89 162.49C138.52 162.64 138.12 162.71 137.72 162.7ZM137.72 161.73C137.98 161.73 138.22 161.68 138.46 161.59C138.68 161.5 138.88 161.37 139.05 161.2C139.22 161.03 139.36 160.82 139.44 160.59C139.54 160.34 139.59 160.07 139.58 159.8C139.59 159.44 139.51 159.09 139.34 158.78C139.18 158.49 138.95 158.26 138.67 158.1C138.38 157.94 138.06 157.86 137.72 157.86C137.47 157.86 137.22 157.91 136.99 158C136.77 158.09 136.57 158.22 136.4 158.39C136.23 158.56 136.09 158.77 136 159C135.91 159.25 135.86 159.52 135.86 159.79C135.85 160.15 135.94 160.5 136.11 160.82C136.26 161.1 136.49 161.33 136.77 161.49C137.06 161.65 137.39 161.73 137.72 161.73Z" fill="#FFFFFF" fill-opacity="1.000000" fill-rule="nonzero"/>
		<path id="Vector" d="M141.72 162.58L141.72 157.02L142.75 157.02L142.75 159.18L145.28 159.18L145.28 157.02L146.32 157.02L146.32 162.58L145.28 162.58L145.28 160.13L142.75 160.13L142.75 162.59L141.72 162.58Z" fill="#FFFFFF" fill-opacity="1.000000" fill-rule="nonzero"/>
		<path id="Vector" d="M147.72 162.58L147.72 157.02L148.74 157.02L148.74 160.92L151.35 157.02L152.36 157.02L152.36 162.58L151.34 162.58L151.34 158.65L148.73 162.59L147.72 162.58Z" fill="#FFFFFF" fill-opacity="1.000000" fill-rule="nonzero"/>
		<path id="Vector" d="M153.76 162.58L153.76 157.02L154.78 157.02L154.78 160.92L157.4 157.02L158.41 157.02L158.41 162.58L157.38 162.58L157.38 158.65L154.77 162.59L153.76 162.58Z" fill="#FFFFFF" fill-opacity="1.000000" fill-rule="nonzero"/>
		<path id="Vector" d="M159.68 163.86L159.35 163.41C159.55 163.32 159.74 163.2 159.9 163.05C160.04 162.94 160.16 162.8 160.25 162.64C160.12 162.65 160 162.63 159.88 162.58C159.78 162.53 159.69 162.46 159.62 162.37C159.56 162.27 159.52 162.16 159.53 162.04C159.52 161.96 159.54 161.87 159.57 161.79C159.6 161.71 159.65 161.64 159.71 161.58C159.77 161.52 159.85 161.47 159.93 161.44C160.01 161.41 160.1 161.4 160.18 161.4C160.28 161.4 160.38 161.42 160.47 161.45C160.56 161.49 160.65 161.55 160.71 161.62C160.86 161.78 160.93 161.99 160.92 162.21C160.91 162.41 160.87 162.61 160.78 162.79C160.67 163 160.54 163.19 160.37 163.35C160.16 163.54 159.93 163.72 159.68 163.86Z" fill="#FFFFFF" fill-opacity="1.000000" fill-rule="nonzero"/>
		<path id="Vector" d="M163.9 162.58L163.9 157.02L164.93 157.02L164.93 159.18L165.97 159.18L165.97 160.13L164.93 160.13L164.93 162.59L163.9 162.58ZM167.34 162.58L165.07 159.66L167.09 157.02L168.37 157.02L166.33 159.66L168.67 162.58L167.34 162.58Z" fill="#FFFFFF" fill-opacity="1.000000" fill-rule="nonzero"/>
		<path id="Vector" d="M171.72 162.7C171.32 162.71 170.92 162.63 170.55 162.48C170.2 162.34 169.88 162.13 169.61 161.87C169.35 161.61 169.14 161.29 169 160.94C168.71 160.21 168.71 159.39 169 158.65C169.14 158.31 169.35 157.99 169.61 157.73C169.88 157.46 170.2 157.25 170.55 157.12C170.92 156.97 171.32 156.89 171.72 156.9C172.12 156.89 172.52 156.97 172.89 157.12C173.23 157.27 173.55 157.48 173.82 157.74C174.22 158.16 174.5 158.69 174.61 159.25C174.72 159.82 174.66 160.41 174.44 160.95C174.3 161.3 174.08 161.61 173.82 161.87C173.55 162.14 173.23 162.35 172.89 162.49C172.52 162.63 172.12 162.71 171.72 162.7ZM171.72 161.73C171.97 161.73 172.22 161.68 172.45 161.59C172.68 161.5 172.88 161.37 173.05 161.2C173.22 161.02 173.35 160.82 173.44 160.59C173.54 160.34 173.59 160.07 173.58 159.8C173.59 159.44 173.51 159.09 173.33 158.78C173.18 158.49 172.95 158.26 172.67 158.1C172.38 157.94 172.05 157.86 171.72 157.86C171.47 157.86 171.22 157.91 170.99 158C170.76 158.09 170.56 158.22 170.4 158.39C170.22 158.56 170.09 158.77 170 159C169.9 159.25 169.86 159.52 169.86 159.79C169.85 160.15 169.94 160.5 170.11 160.82C170.26 161.1 170.49 161.33 170.77 161.49C171.06 161.65 171.39 161.73 171.72 161.73Z" fill="#FFFFFF" fill-opacity="1.000000" fill-rule="nonzero"/>
		<path id="Vector" d="M175.72 162.58L175.72 157.02L177.81 157.02C178.17 157.01 178.54 157.08 178.87 157.23C179.17 157.35 179.42 157.56 179.6 157.83C179.78 158.11 179.88 158.44 179.87 158.78C179.88 159.11 179.79 159.44 179.62 159.73C179.45 159.99 179.2 160.2 178.91 160.32C178.55 160.47 178.17 160.54 177.78 160.53L176.75 160.53L176.75 162.59L175.72 162.58ZM176.75 159.64L177.78 159.64C178.05 159.66 178.32 159.59 178.55 159.44C178.74 159.3 178.83 159.09 178.83 158.79C178.84 158.67 178.82 158.55 178.77 158.43C178.72 158.32 178.64 158.22 178.55 158.14C178.32 157.98 178.06 157.9 177.78 157.91L176.75 157.91L176.75 159.64Z" fill="#FFFFFF" fill-opacity="1.000000" fill-rule="nonzero"/>
		<path id="Vector" d="M180.82 162.58L180.82 157.02L184.52 157.02L184.52 157.93L181.85 157.93L181.85 159.28L184.13 159.28L184.13 160.12L181.85 160.12L181.85 161.67L184.55 161.67L184.55 162.58L180.82 162.58Z" fill="#FFFFFF" fill-opacity="1.000000" fill-rule="nonzero"/>
		<path id="Vector" d="M185.75 162.58L185.75 157.02L186.77 157.02L186.77 160.92L189.38 157.02L190.39 157.02L190.39 162.58L189.37 162.58L189.37 158.65L186.76 162.59L185.75 162.58Z" fill="#FFFFFF" fill-opacity="1.000000" fill-rule="nonzero"/>
		<path id="Vector" d="M193.7 162.58L193.7 157.02L194.72 157.02L194.72 160.92L197.33 157.02L198.34 157.02L198.34 162.58L197.32 162.58L197.32 158.65L194.71 162.59L193.7 162.58Z" fill="#FFFFFF" fill-opacity="1.000000" fill-rule="nonzero"/>
		<path id="Vector" d="M201.65 162.58L201.65 157.02L202.69 157.02L202.69 159.18L203.73 159.18L203.73 160.13L202.69 160.13L202.69 162.59L201.65 162.58ZM205.09 162.58L202.82 159.66L204.84 157.02L206.12 157.02L204.08 159.66L206.42 162.58L205.09 162.58Z" fill="#FFFFFF" fill-opacity="1.000000" fill-rule="nonzero"/>
		<path id="Vector" d="M207.28 162.58L207.28 157.02L208.3 157.02L208.3 160.92L210.91 157.02L211.92 157.02L211.92 162.58L210.9 162.58L210.9 158.65L208.29 162.59L207.28 162.58Z" fill="#FFFFFF" fill-opacity="1.000000" fill-rule="nonzero"/>
		<path id="Vector" d="M214.35 162.58L214.35 157.96L212.81 157.96L212.81 157.02L216.92 157.02L216.92 157.96L215.38 157.96L215.38 162.58L214.35 162.58Z" fill="#FFFFFF" fill-opacity="1.000000" fill-rule="nonzero"/>
		<path id="Vector" d="M216.83 162.58L218.96 157.02L220.11 157.02L222.29 162.58L221.13 162.58L220.65 161.32L218.41 161.32L217.96 162.58L216.83 162.58ZM218.67 160.44L220.39 160.44L219.52 158.19L218.67 160.44Z" fill="#FFFFFF" fill-opacity="1.000000" fill-rule="nonzero"/>
		<path id="Vector" d="M222.62 162.58L224.25 160.26C223.87 160.19 223.52 160 223.25 159.72C223.01 159.44 222.88 159.07 222.9 158.7C222.89 158.38 222.98 158.06 223.15 157.79C223.32 157.53 223.56 157.33 223.85 157.21C224.19 157.07 224.55 157 224.92 157.01L227 157.01L227 162.58L225.96 162.58L225.96 160.4L225.29 160.4L223.82 162.58L222.62 162.58ZM224.94 159.56L225.97 159.56L225.97 157.88L224.99 157.88C224.72 157.87 224.45 157.94 224.22 158.09C224.13 158.16 224.05 158.25 224 158.36C223.96 158.47 223.93 158.58 223.94 158.7C223.93 158.82 223.95 158.94 224 159.05C224.04 159.16 224.11 159.26 224.2 159.34C224.36 159.48 224.61 159.56 224.94 159.56L224.94 159.56Z" fill="#FFFFFF" fill-opacity="1.000000" fill-rule="nonzero"/>
		<path id="Vector" d="M113.74 0L43.39 115.67L72.41 107.44L80.01 107.58C80.25 107.58 80.49 107.54 80.72 107.44C80.94 107.35 81.14 107.21 81.3 107.04C82.18 106.12 83.88 104.25 84.4 103.15C84.4 103.15 82.98 101.32 81.51 100.7C80.95 100.46 79.3 100.04 77.43 99.66C74.41 99.03 70.81 98.5 70.18 98.96L70.64 87.96C70.84 88.22 71.09 88.45 71.38 88.61C72.89 89.43 76.02 90.88 80.65 91.58C80.65 91.58 81.3 91.67 82.27 91.7C83.38 91.74 84.9 91.69 86.28 91.32C85.69 90 85.26 88.62 85.01 87.2C84.98 87.06 84.96 86.91 84.94 86.77C84.94 86.77 72.53 84.77 71.02 83.22L77.97 75.55C77.97 75.55 78.7 69.71 82.9 65.72C81.97 67.71 81.25 69.79 80.76 71.93C85.11 71.59 90.01 71.39 94.68 71.28C104.75 71.05 113.74 71.2 113.74 71.2C113.74 71.2 122.72 71.05 132.8 71.28C137.47 71.4 142.38 71.59 146.73 71.93C146.23 69.79 145.51 67.71 144.58 65.72C148.78 69.72 149.51 75.55 149.51 75.55L156.46 83.22C154.95 84.77 142.54 86.77 142.54 86.77C142.52 86.91 142.5 87.06 142.47 87.2C142.22 88.62 141.79 90 141.2 91.32C142.58 91.69 144.1 91.74 145.21 91.7C146.17 91.67 146.83 91.58 146.83 91.58C151.46 90.88 154.59 89.43 156.1 88.61C156.39 88.45 156.64 88.23 156.84 87.96L157.3 98.96C156.67 98.5 153.07 99.03 150.05 99.66C148.17 100.04 146.52 100.46 145.96 100.7C144.5 101.32 143.07 103.15 143.07 103.15C143.6 104.25 145.3 106.12 146.17 107.04C146.34 107.21 146.54 107.35 146.76 107.44C146.98 107.54 147.22 107.58 147.46 107.58L155.07 107.44L184.09 115.67L113.74 0ZM104.78 54.68L113.74 39.95L122.67 54.64C116.37 54.5 109.05 54.59 104.78 54.68Z" fill="#FFFFFF" fill-opacity="1.000000" fill-rule="nonzero"/>
		<path id="Vector" d="M113.73 84.43C99.28 84.43 91.4 85.64 89.16 86.04C88.97 86.08 88.8 86.18 88.68 86.34C88.56 86.49 88.5 86.69 88.52 86.88C88.77 89.95 90.39 92.45 91.21 93.52C91.49 93.89 91.89 94.16 92.34 94.29C99.74 96.47 113.74 97.83 113.74 97.83C113.74 97.83 127.73 96.47 135.13 94.29C135.58 94.16 135.98 93.89 136.26 93.52C137.08 92.44 138.7 89.95 138.95 86.88C138.97 86.69 138.91 86.49 138.79 86.34C138.67 86.18 138.5 86.08 138.31 86.04C136.07 85.64 128.19 84.43 113.73 84.43Z" fill="#FFFFFF" fill-opacity="1.000000" fill-rule="nonzero"/>
		<path id="Vector" d="M142.78 109.51C141.28 108.77 138.69 105.48 137.59 104.02C137.43 103.8 137.22 103.63 136.97 103.51C136.73 103.39 136.46 103.33 136.19 103.34C133.46 103.41 124.68 103.63 113.73 103.63C102.79 103.63 94.01 103.42 91.28 103.35C91.01 103.34 90.74 103.4 90.5 103.52C90.25 103.63 90.04 103.81 89.88 104.03C88.78 105.49 86.19 108.77 84.69 109.51C82.75 110.46 70.89 109.02 70.89 109.02C70.69 110.21 71.53 110.59 71.53 110.59C73.85 112.09 113.73 111.73 113.73 111.73C113.73 111.73 153.62 112.09 155.94 110.59C155.94 110.59 156.78 110.22 156.58 109.03C156.58 109.02 144.72 110.46 142.78 109.51Z" fill="#FFFFFF" fill-opacity="1.000000" fill-rule="nonzero"/>
		<path id="Vector" d="M113.73 84.43C128.19 84.43 136.07 85.64 138.31 86.04C138.5 86.08 138.67 86.18 138.79 86.34C138.91 86.49 138.97 86.69 138.95 86.88C138.7 89.95 137.08 92.45 136.26 93.52C135.98 93.89 135.58 94.16 135.13 94.29C127.73 96.47 113.73 97.83 113.73 97.83C113.73 97.83 99.74 96.47 92.34 94.29C91.89 94.16 91.49 93.89 91.21 93.52C90.39 92.44 88.77 89.94 88.52 86.88C88.5 86.68 88.56 86.49 88.68 86.33C88.8 86.18 88.97 86.07 89.16 86.04C91.4 85.64 99.28 84.43 113.73 84.43Z" fill="#FFFFFF" fill-opacity="1.000000" fill-rule="nonzero"/>
		<path id="Vector" d="M84.69 109.51C86.19 108.77 88.78 105.48 89.88 104.02C90.04 103.8 90.25 103.63 90.5 103.51C90.74 103.39 91.01 103.33 91.28 103.34C94.01 103.41 102.79 103.63 113.73 103.63C124.68 103.63 133.46 103.41 136.19 103.34C136.46 103.33 136.73 103.39 136.97 103.51C137.22 103.63 137.43 103.8 137.59 104.02C138.69 105.48 141.28 108.77 142.78 109.51C144.72 110.46 156.58 109.03 156.58 109.03C156.78 110.22 155.94 110.59 155.94 110.59C153.62 112.09 113.73 111.74 113.73 111.74C113.73 111.74 73.85 112.09 71.53 110.59C71.53 110.59 70.69 110.22 70.89 109.03C70.89 109.02 82.75 110.46 84.69 109.51Z" fill="#FFFFFF" fill-opacity="1.000000" fill-rule="nonzero"/>
	</g>
</svg>
