<svg width="11.000000" height="6.000000" viewBox="0 0 11 6" fill="none" xmlns="http://www.w3.org/2000/svg" xmlns:xlink="http://www.w3.org/1999/xlink">
	<desc>
			Created with Pixso.
	</desc>
	<defs/>
	<path id="Vector" d="M10.35 0.35L5.35 5.35C5.3 5.4 5.25 5.43 5.19 5.46C5.13 5.48 5.06 5.5 5 5.5C4.93 5.5 4.86 5.48 4.8 5.46C4.74 5.43 4.69 5.4 4.64 5.35L-0.36 0.35C-0.45 0.26 -0.51 0.13 -0.51 0C-0.51 -0.14 -0.45 -0.27 -0.36 -0.36C-0.26 -0.45 -0.14 -0.51 3.05e-5 -0.51C0.13 -0.51 0.25 -0.45 0.35 -0.36L5 4.29L9.64 -0.36C9.69 -0.41 9.74 -0.44 9.8 -0.47C9.86 -0.49 9.93 -0.51 10 -0.51C10.06 -0.51 10.13 -0.49 10.19 -0.47C10.25 -0.44 10.3 -0.41 10.35 -0.36C10.4 -0.31 10.43 -0.26 10.46 -0.2C10.48 -0.14 10.5 -0.07 10.5 0C10.5 0.06 10.48 0.13 10.46 0.19C10.43 0.25 10.4 0.3 10.35 0.35Z" fill="#000000" fill-opacity="1.000000" fill-rule="nonzero"/>
</svg>
