<svg width="13.000000" height="10.000000" viewBox="0 0 13 10" fill="none" xmlns="http://www.w3.org/2000/svg" xmlns:xlink="http://www.w3.org/1999/xlink">
	<desc>
			Created with Pixso.
	</desc>
	<defs/>
	<path id="Vector" d="M11.7 1.7L4.7 8.7C4.61 8.8 4.5 8.87 4.38 8.92C4.26 8.97 4.13 9 4 9C3.86 9 3.73 8.97 3.61 8.92C3.49 8.87 3.38 8.8 3.29 8.7L0.29 5.7C0.1 5.52 0 5.26 0 5C0 4.73 0.1 4.48 0.29 4.29C0.48 4.1 0.73 4 1 4C1.26 4 1.52 4.1 1.7 4.29L4 6.58L10.29 0.29C10.38 0.2 10.49 0.12 10.61 0.07C10.73 0.02 10.86 0 11 0C11.13 0 11.26 0.02 11.38 0.07C11.5 0.12 11.61 0.2 11.7 0.29C11.8 0.38 11.87 0.49 11.92 0.61C11.97 0.73 12 0.86 12 1C12 1.13 11.97 1.26 11.92 1.38C11.87 1.5 11.8 1.61 11.7 1.7Z" fill="#FFFFFF" fill-opacity="1.000000" fill-rule="evenodd"/>
</svg>
