<svg width="111.000000" height="81.000000" viewBox="0 0 111 81" fill="none" xmlns="http://www.w3.org/2000/svg" xmlns:xlink="http://www.w3.org/1999/xlink">
	<desc>
			Created with Pixso.
	</desc>
	<defs/>
	<path id="Vector" d="M9.69 66.33L9.69 74.46L7.5 74.46L7.5 71.06L2.19 71.06L2.19 74.46L0 74.46L0 66.33C0 65.99 0.06 65.67 0.19 65.36C0.31 65.06 0.5 64.78 0.73 64.55C0.97 64.31 1.24 64.13 1.55 64C1.86 63.87 2.18 63.81 2.51 63.81L7.18 63.81C7.84 63.81 8.48 64.07 8.96 64.55C9.43 65.02 9.69 65.66 9.69 66.33ZM7.5 68.86L7.5 66.66C7.5 66.58 7.48 66.49 7.45 66.41C7.41 66.33 7.37 66.26 7.31 66.2C7.24 66.13 7.17 66.09 7.09 66.05C7.01 66.02 6.93 66 6.84 66L2.85 66C2.76 66 2.68 66.02 2.6 66.05C2.52 66.09 2.44 66.13 2.38 66.2C2.32 66.26 2.27 66.33 2.24 66.41C2.21 66.49 2.19 66.58 2.19 66.66L2.19 68.86L7.5 68.86Z" fill="#FFFFFF" fill-opacity="1.000000" fill-rule="nonzero"/>
	<path id="Vector" d="M18.7 72.08C18.76 72.01 18.81 71.94 18.84 71.86C18.87 71.78 18.89 71.7 18.89 71.61L18.89 63.81L21.09 63.81L21.09 71.95C21.09 72.28 21.02 72.6 20.89 72.91C20.77 73.22 20.58 73.49 20.35 73.73C20.11 73.96 19.84 74.15 19.53 74.27C19.23 74.4 18.9 74.46 18.57 74.46L13.91 74.46C13.24 74.46 12.6 74.2 12.13 73.73C11.65 73.25 11.39 72.61 11.39 71.95L11.39 63.81L13.58 63.81L13.58 71.61C13.58 71.78 13.65 71.95 13.78 72.07C13.9 72.2 14.07 72.27 14.24 72.27L18.23 72.27C18.32 72.27 18.4 72.25 18.48 72.22C18.56 72.19 18.64 72.14 18.7 72.08Z" fill="#FFFFFF" fill-opacity="1.000000" fill-rule="nonzero"/>
	<path id="Vector" d="M32.06 66L28.15 66L28.15 74.46L25.96 74.46L25.96 66L22.05 66L22.05 63.81L32.06 63.81L32.06 66Z" fill="#FFFFFF" fill-opacity="1.000000" fill-rule="nonzero"/>
	<path id="Vector" d="M35.45 63.81L41.08 63.81C41.4 63.81 41.72 63.87 42.02 64C42.32 64.12 42.59 64.3 42.82 64.53C43.05 64.76 43.23 65.03 43.36 65.33C43.48 65.63 43.55 65.95 43.55 66.28L43.55 71.99C43.55 72.32 43.48 72.64 43.36 72.94C43.23 73.24 43.05 73.51 42.82 73.74C42.59 73.97 42.32 74.15 42.02 74.28C41.72 74.4 41.4 74.46 41.08 74.46L35.45 74.46C34.79 74.46 34.17 74.2 33.7 73.74C33.24 73.28 32.98 72.65 32.98 71.99L32.98 66.28C32.98 65.62 33.24 64.99 33.7 64.53C34.17 64.07 34.79 63.81 35.45 63.81ZM35.87 72.27L40.66 72.27C40.84 72.27 41.02 72.2 41.15 72.07C41.28 71.94 41.35 71.76 41.35 71.58L41.35 66.69C41.35 66.51 41.28 66.34 41.15 66.21C41.02 66.08 40.84 66 40.66 66L35.87 66C35.68 66 35.51 66.08 35.38 66.21C35.25 66.34 35.18 66.51 35.18 66.69L35.18 71.58C35.18 71.76 35.25 71.94 35.38 72.07C35.51 72.2 35.68 72.27 35.87 72.27Z" fill="#FFFFFF" fill-opacity="1.000000" fill-rule="nonzero"/>
	<path id="Vector" d="M47.51 72.08C47.63 72.2 47.8 72.27 47.97 72.27L54.59 72.27L54.59 74.46L47.64 74.46C47.3 74.46 46.98 74.4 46.67 74.27C46.37 74.15 46.09 73.96 45.85 73.73C45.62 73.49 45.44 73.21 45.31 72.91C45.18 72.6 45.12 72.28 45.12 71.95L45.12 66.33C45.12 65.99 45.18 65.67 45.31 65.36C45.43 65.06 45.62 64.78 45.85 64.55C46.09 64.31 46.37 64.13 46.67 64C46.98 63.87 47.3 63.81 47.63 63.81L54.45 63.81L54.45 66L47.97 66C47.88 66 47.8 66.02 47.72 66.05C47.64 66.09 47.57 66.13 47.51 66.2C47.44 66.26 47.4 66.33 47.36 66.41C47.33 66.49 47.31 66.58 47.31 66.66L47.31 71.61C47.31 71.78 47.38 71.95 47.51 72.08Z" fill="#FFFFFF" fill-opacity="1.000000" fill-rule="nonzero"/>
	<path id="Vector" d="M65.38 72.27L65.38 74.46L55.91 74.46L55.91 63.81L65.25 63.81L65.25 66L58.11 66L58.11 68.04L64.83 68.04L64.83 70.23L58.11 70.23L58.11 72.27L65.38 72.27Z" fill="#FFFFFF" fill-opacity="1.000000" fill-rule="nonzero"/>
	<path id="Vector" d="M77.45 63.81L77.45 74.46L74.72 74.46L69.12 67.23L69.12 74.46L66.92 74.46L66.92 63.81L69.39 63.81L75.25 71.4L75.25 63.81L77.45 63.81Z" fill="#FFFFFF" fill-opacity="1.000000" fill-rule="nonzero"/>
	<path id="Vector" d="M88.5 66L84.59 66L84.59 74.46L82.39 74.46L82.39 66L78.48 66L78.48 63.81L88.5 63.81L88.5 66Z" fill="#FFFFFF" fill-opacity="1.000000" fill-rule="nonzero"/>
	<path id="Vector" d="M99.01 72.27L99.01 74.46L89.54 74.46L89.54 63.81L98.87 63.81L98.87 66L91.73 66L91.73 68.04L98.46 68.04L98.46 70.23L91.73 70.23L91.73 72.27L99.01 72.27Z" fill="#FFFFFF" fill-opacity="1.000000" fill-rule="nonzero"/>
	<path id="Vector" d="M104.9 70.51L102.74 70.51L102.74 74.46L100.55 74.46L100.55 63.81L107.55 63.81C107.87 63.81 108.19 63.87 108.49 64C108.79 64.12 109.06 64.3 109.29 64.53C109.52 64.76 109.71 65.03 109.83 65.33C109.95 65.63 110.02 65.95 110.02 66.28L110.02 68.04C110.02 68.65 109.79 69.25 109.37 69.7C108.96 70.16 108.39 70.44 107.78 70.5L110.84 74.46L107.96 74.46L104.9 70.51ZM102.74 68.31L107.13 68.31C107.22 68.31 107.31 68.3 107.39 68.26C107.48 68.23 107.55 68.18 107.62 68.11C107.68 68.05 107.73 67.97 107.77 67.89C107.8 67.8 107.82 67.71 107.82 67.62L107.82 66.69C107.82 66.51 107.75 66.34 107.62 66.21C107.49 66.08 107.31 66 107.13 66L102.74 66L102.74 68.31Z" fill="#FFFFFF" fill-opacity="1.000000" fill-rule="nonzero"/>
	<path id="Vector" d="M0 79.31L1.04 76.59L1.6 76.59L2.67 79.31L2.09 79.31L1.86 78.69L0.77 78.69L0.55 79.31L0 79.31ZM0.9 78.26L1.74 78.26L1.31 77.16L0.9 78.26Z" fill="#FFFFFF" fill-opacity="1.000000" fill-rule="nonzero"/>
	<path id="Vector" d="M3.04 79.31L3.04 76.59L4.01 76.59C4.28 76.59 4.49 76.65 4.65 76.77C4.82 76.88 4.9 77.05 4.9 77.28C4.9 77.36 4.88 77.44 4.84 77.52C4.76 77.66 4.64 77.78 4.49 77.84C4.64 77.89 4.76 77.98 4.86 78.1C4.95 78.22 5.01 78.38 5 78.54C5 78.68 4.96 78.82 4.88 78.94C4.8 79.06 4.69 79.16 4.56 79.21C4.4 79.28 4.22 79.32 4.05 79.31L3.04 79.31ZM3.54 77.74L3.94 77.74C4.02 77.74 4.11 77.72 4.18 77.69C4.25 77.66 4.31 77.62 4.35 77.56C4.39 77.49 4.4 77.42 4.4 77.35C4.41 77.3 4.4 77.24 4.37 77.2C4.35 77.15 4.32 77.11 4.28 77.08C4.18 77.01 4.05 76.97 3.93 76.98L3.54 76.98L3.54 77.74ZM3.54 78.92L3.97 78.92C4.14 78.92 4.26 78.89 4.35 78.82C4.39 78.78 4.43 78.74 4.45 78.68C4.47 78.63 4.48 78.57 4.47 78.51C4.48 78.46 4.47 78.4 4.45 78.35C4.43 78.29 4.39 78.25 4.35 78.21C4.27 78.14 4.14 78.1 3.97 78.1L3.54 78.1L3.54 78.92Z" fill="#FFFFFF" fill-opacity="1.000000" fill-rule="nonzero"/>
	<path id="Vector" d="M6.03 79.31L6.03 77.05L5.28 77.05L5.28 76.59L7.29 76.59L7.29 77.05L6.54 77.05L6.54 79.31L6.03 79.31Z" fill="#FFFFFF" fill-opacity="1.000000" fill-rule="nonzero"/>
	<path id="Vector" d="M8.88 79.37C8.68 79.37 8.49 79.33 8.31 79.26C8.14 79.19 7.98 79.09 7.85 78.96C7.72 78.83 7.62 78.68 7.55 78.51C7.41 78.15 7.41 77.75 7.55 77.39C7.62 77.22 7.72 77.07 7.85 76.94C7.98 76.81 8.14 76.71 8.31 76.64C8.49 76.57 8.68 76.53 8.88 76.53C9.07 76.53 9.27 76.57 9.45 76.64C9.62 76.71 9.77 76.82 9.9 76.95C10.1 77.15 10.23 77.41 10.29 77.68C10.34 77.96 10.31 78.25 10.21 78.51C10.14 78.68 10.03 78.83 9.9 78.96C9.77 79.09 9.62 79.19 9.45 79.26C9.27 79.33 9.07 79.37 8.88 79.37ZM8.88 78.89C9 78.89 9.12 78.87 9.24 78.82C9.35 78.78 9.45 78.72 9.53 78.63C9.61 78.55 9.68 78.45 9.72 78.34C9.76 78.21 9.79 78.08 9.79 77.95C9.79 77.78 9.75 77.6 9.67 77.45C9.59 77.31 9.48 77.2 9.34 77.12C9.2 77.04 9.04 77 8.88 77.01C8.76 77 8.63 77.03 8.52 77.07C8.41 77.12 8.31 77.18 8.23 77.26C8.15 77.35 8.08 77.45 8.04 77.56C7.99 77.68 7.97 77.81 7.97 77.95C7.96 78.12 8.01 78.29 8.09 78.45C8.16 78.58 8.28 78.7 8.41 78.77C8.56 78.85 8.72 78.89 8.88 78.89Z" fill="#FFFFFF" fill-opacity="1.000000" fill-rule="nonzero"/>
	<path id="Vector" d="M10.83 79.31L10.83 76.59L11.32 76.59L12.4 78.37L12.2 78.37L13.24 76.59L13.72 76.59L13.72 79.31L13.23 79.31L13.24 77.25L13.33 77.29L12.45 78.75L12.1 78.75L11.2 77.29L11.28 77.25L11.29 79.31L10.83 79.31Z" fill="#FFFFFF" fill-opacity="1.000000" fill-rule="nonzero"/>
	<path id="Vector" d="M15.67 79.37C15.48 79.37 15.29 79.33 15.1 79.26C14.93 79.19 14.78 79.09 14.65 78.96C14.52 78.83 14.41 78.68 14.35 78.51C14.2 78.15 14.2 77.75 14.35 77.39C14.41 77.22 14.52 77.07 14.65 76.94C14.78 76.81 14.93 76.71 15.1 76.64C15.29 76.57 15.48 76.53 15.67 76.53C15.87 76.53 16.06 76.57 16.24 76.64C16.41 76.71 16.57 76.82 16.7 76.95C16.9 77.15 17.03 77.41 17.08 77.68C17.14 77.96 17.11 78.25 17 78.51C16.93 78.68 16.83 78.83 16.7 78.96C16.57 79.09 16.41 79.19 16.24 79.26C16.06 79.33 15.87 79.37 15.67 79.37ZM15.67 78.89C15.8 78.89 15.92 78.87 16.03 78.82C16.14 78.78 16.24 78.72 16.32 78.63C16.41 78.55 16.47 78.45 16.51 78.34C16.56 78.21 16.59 78.08 16.58 77.95C16.59 77.78 16.55 77.6 16.46 77.45C16.39 77.31 16.27 77.2 16.14 77.12C16 77.04 15.84 77 15.67 77.01C15.55 77 15.43 77.03 15.32 77.07C15.21 77.11 15.11 77.18 15.03 77.26C14.94 77.35 14.88 77.45 14.84 77.56C14.79 77.68 14.76 77.81 14.77 77.95C14.76 78.12 14.8 78.29 14.89 78.45C14.96 78.58 15.07 78.7 15.21 78.77C15.35 78.85 15.51 78.89 15.67 78.89Z" fill="#FFFFFF" fill-opacity="1.000000" fill-rule="nonzero"/>
	<path id="Vector" d="M17.63 79.31L17.63 76.59L19.38 76.59L19.38 77.04L18.13 77.04L18.13 77.7L18.6 77.7C18.9 77.7 19.14 77.77 19.32 77.91C19.49 78.04 19.58 78.24 19.58 78.51C19.59 78.66 19.55 78.81 19.47 78.94C19.38 79.07 19.27 79.16 19.13 79.22C18.96 79.29 18.78 79.32 18.6 79.31L17.63 79.31ZM18.13 78.92L18.56 78.92C18.72 78.92 18.84 78.89 18.93 78.81C18.98 78.78 19.01 78.73 19.03 78.68C19.06 78.62 19.07 78.56 19.06 78.51C19.07 78.45 19.06 78.39 19.03 78.34C19.01 78.28 18.98 78.23 18.93 78.2C18.83 78.12 18.71 78.08 18.58 78.09L18.13 78.09L18.13 78.92Z" fill="#FFFFFF" fill-opacity="1.000000" fill-rule="nonzero"/>
	<path id="Vector" d="M20.12 79.31L20.12 76.59L20.62 76.59L20.62 78.5L21.89 76.59L22.39 76.59L22.39 79.31L21.89 79.31L21.89 77.39L20.61 79.31L20.12 79.31Z" fill="#FFFFFF" fill-opacity="1.000000" fill-rule="nonzero"/>
	<path id="Vector" d="M22.99 79.36L22.81 78.89C22.89 78.87 22.97 78.84 23.04 78.8C23.1 78.76 23.15 78.71 23.19 78.65C23.24 78.57 23.27 78.48 23.29 78.39C23.32 78.26 23.33 78.13 23.34 78C23.35 77.84 23.35 77.64 23.35 77.41L23.35 76.59L25.3 76.59L25.3 79.31L24.8 79.31L24.8 77.05L23.83 77.05L23.83 77.39C23.83 77.67 23.83 77.92 23.81 78.12C23.8 78.3 23.77 78.47 23.72 78.64C23.69 78.77 23.64 78.88 23.57 78.99C23.5 79.08 23.42 79.16 23.33 79.22C23.22 79.28 23.11 79.33 22.99 79.36Z" fill="#FFFFFF" fill-opacity="1.000000" fill-rule="nonzero"/>
	<path id="Vector" d="M25.99 79.31L25.99 76.59L26.49 76.59L26.49 78.5L27.76 76.59L28.26 76.59L28.26 79.31L27.76 79.31L27.76 77.39L26.48 79.31L25.99 79.31Z" fill="#FFFFFF" fill-opacity="1.000000" fill-rule="nonzero"/>
	<path id="Vector" d="M29.87 79.31L29.87 76.59L32.11 76.59L32.11 79.31L31.61 79.31L31.61 77.05L30.37 77.05L30.37 79.31L29.87 79.31Z" fill="#FFFFFF" fill-opacity="1.000000" fill-rule="nonzero"/>
	<path id="Vector" d="M34.07 79.37C33.87 79.37 33.68 79.33 33.5 79.26C33.33 79.19 33.17 79.09 33.04 78.96C32.91 78.83 32.81 78.68 32.74 78.51C32.6 78.15 32.6 77.75 32.74 77.39C32.81 77.22 32.91 77.07 33.04 76.94C33.17 76.81 33.33 76.71 33.5 76.64C33.68 76.57 33.87 76.53 34.07 76.53C34.26 76.53 34.46 76.57 34.64 76.64C34.81 76.71 34.96 76.82 35.09 76.95C35.29 77.15 35.42 77.41 35.48 77.68C35.53 77.96 35.5 78.25 35.4 78.51C35.33 78.68 35.22 78.83 35.09 78.96C34.96 79.09 34.81 79.19 34.64 79.26C34.46 79.33 34.26 79.37 34.07 79.37ZM34.07 78.89C34.19 78.89 34.31 78.87 34.43 78.82C34.54 78.78 34.64 78.72 34.72 78.63C34.8 78.55 34.87 78.45 34.91 78.34C34.96 78.21 34.98 78.08 34.98 77.95C34.98 77.78 34.94 77.6 34.86 77.45C34.78 77.31 34.67 77.2 34.53 77.12C34.39 77.04 34.23 77 34.07 77.01C33.95 77 33.82 77.03 33.71 77.07C33.6 77.11 33.5 77.18 33.42 77.26C33.34 77.35 33.27 77.45 33.23 77.56C33.18 77.68 33.16 77.81 33.16 77.95C33.16 78.12 33.2 78.29 33.28 78.45C33.36 78.58 33.47 78.7 33.6 78.77C33.75 78.85 33.91 78.89 34.07 78.89Z" fill="#FFFFFF" fill-opacity="1.000000" fill-rule="nonzero"/>
	<path id="Vector" d="M37.73 79.31L37.73 77.05L36.74 77.05L36.74 77.4C36.74 77.67 36.73 77.94 36.69 78.22C36.67 78.41 36.62 78.59 36.55 78.77C36.49 78.91 36.39 79.02 36.28 79.11C36.15 79.2 36.01 79.26 35.87 79.3L35.69 78.88C35.79 78.86 35.89 78.82 35.97 78.76C36.05 78.7 36.11 78.61 36.15 78.52C36.2 78.38 36.23 78.23 36.24 78.08C36.25 77.9 36.26 77.67 36.26 77.39L36.26 76.59L38.23 76.59L38.23 79.3L37.73 79.31ZM35.69 80L35.69 78.88L36.01 78.9L36.18 78.85L38.67 78.85L38.67 80L38.19 80L38.19 79.31L36.17 79.31L36.17 80L35.69 80Z" fill="#FFFFFF" fill-opacity="1.000000" fill-rule="nonzero"/>
	<path id="Vector" d="M40.82 79.37C40.63 79.37 40.44 79.34 40.25 79.29C40.09 79.24 39.93 79.16 39.8 79.06L40.03 78.66C40.12 78.74 40.24 78.81 40.36 78.85C40.49 78.9 40.63 78.92 40.77 78.92C40.88 78.92 40.99 78.91 41.1 78.87C41.18 78.84 41.25 78.79 41.31 78.72C41.36 78.66 41.38 78.59 41.38 78.51C41.39 78.45 41.38 78.39 41.35 78.34C41.33 78.29 41.29 78.25 41.25 78.21C41.16 78.15 41.03 78.11 40.84 78.11L40.31 78.11L40.31 77.71L40.8 77.71C40.9 77.72 40.99 77.7 41.07 77.67C41.14 77.64 41.2 77.6 41.24 77.54C41.28 77.48 41.31 77.41 41.3 77.34C41.31 77.27 41.29 77.21 41.24 77.15C41.2 77.1 41.14 77.05 41.07 77.03C40.98 77.01 40.88 76.99 40.78 76.99C40.66 76.99 40.53 77.01 40.42 77.06C40.31 77.09 40.21 77.15 40.12 77.23L39.88 76.86C40.01 76.75 40.15 76.67 40.31 76.62C40.48 76.56 40.66 76.53 40.85 76.53C41.02 76.53 41.2 76.56 41.36 76.62C41.49 76.67 41.61 76.75 41.69 76.87C41.77 76.98 41.81 77.12 41.81 77.25C41.81 77.34 41.79 77.42 41.75 77.5C41.72 77.57 41.67 77.64 41.6 77.7C41.55 77.76 41.48 77.81 41.4 77.85C41.55 77.89 41.68 77.98 41.77 78.09C41.87 78.22 41.92 78.37 41.91 78.53C41.91 78.68 41.86 78.83 41.77 78.95C41.68 79.09 41.55 79.19 41.4 79.25C41.22 79.33 41.02 79.37 40.82 79.37Z" fill="#FFFFFF" fill-opacity="1.000000" fill-rule="nonzero"/>
	<path id="Vector" d="M42.13 79.31L43.17 76.59L43.73 76.59L44.8 79.31L44.23 79.31L44 78.69L42.91 78.69L42.68 79.31L42.13 79.31ZM43.03 78.26L43.87 78.26L43.44 77.16L43.03 78.26Z" fill="#FFFFFF" fill-opacity="1.000000" fill-rule="nonzero"/>
	<path id="Vector" d="M45.17 79.31L45.17 76.59L45.67 76.59L45.67 77.65L46.18 77.65L46.18 78.11L45.67 78.11L45.67 79.31L45.17 79.31ZM46.85 79.31L45.74 77.88L46.73 76.59L47.35 76.59L46.36 77.88L47.5 79.31L46.85 79.31Z" fill="#FFFFFF" fill-opacity="1.000000" fill-rule="nonzero"/>
	<path id="Vector" d="M47.63 79.31L48.67 76.59L49.23 76.59L50.3 79.31L49.73 79.31L49.5 78.69L48.4 78.69L48.18 79.31L47.63 79.31ZM48.53 78.26L49.37 78.26L48.94 77.16L48.53 78.26Z" fill="#FFFFFF" fill-opacity="1.000000" fill-rule="nonzero"/>
	<path id="Vector" d="M51.45 79.37C51.26 79.37 51.06 79.34 50.88 79.29C50.71 79.24 50.56 79.16 50.42 79.06L50.65 78.66C50.75 78.74 50.86 78.81 50.99 78.85C51.12 78.9 51.26 78.92 51.4 78.92C51.51 78.92 51.62 78.91 51.72 78.87C51.8 78.84 51.88 78.79 51.93 78.72C51.98 78.66 52.01 78.59 52.01 78.51C52.01 78.45 52 78.4 51.98 78.34C51.95 78.29 51.92 78.25 51.88 78.21C51.79 78.15 51.65 78.11 51.47 78.11L50.93 78.11L50.93 77.72L51.43 77.72C51.52 77.72 51.61 77.7 51.7 77.67C51.76 77.65 51.82 77.6 51.87 77.54C51.91 77.49 51.93 77.42 51.93 77.34C51.93 77.28 51.91 77.21 51.87 77.15C51.82 77.1 51.76 77.06 51.69 77.04C51.6 77.01 51.5 76.99 51.41 77C51.28 77 51.16 77.02 51.04 77.06C50.93 77.1 50.83 77.16 50.74 77.23L50.51 76.86C50.63 76.75 50.78 76.67 50.93 76.62C51.11 76.56 51.29 76.53 51.47 76.54C51.65 76.53 51.82 76.56 51.98 76.62C52.12 76.67 52.23 76.76 52.32 76.87C52.4 76.98 52.44 77.12 52.43 77.26C52.43 77.34 52.41 77.42 52.38 77.5C52.34 77.58 52.29 77.65 52.23 77.71C52.17 77.77 52.1 77.81 52.03 77.85C52.17 77.89 52.3 77.98 52.4 78.1C52.49 78.22 52.54 78.37 52.53 78.53C52.54 78.68 52.49 78.83 52.4 78.96C52.3 79.09 52.17 79.19 52.02 79.26C51.84 79.34 51.65 79.37 51.45 79.37Z" fill="#FFFFFF" fill-opacity="1.000000" fill-rule="nonzero"/>
	<path id="Vector" d="M54.17 79.31L54.17 76.59L54.67 76.59L54.67 78.5L55.94 76.59L56.44 76.59L56.44 79.31L55.94 79.31L55.94 77.39L54.66 79.31L54.17 79.31Z" fill="#FFFFFF" fill-opacity="1.000000" fill-rule="nonzero"/>
	<path id="Vector" d="M57.9 79.37C57.71 79.37 57.51 79.34 57.33 79.29C57.16 79.24 57.01 79.16 56.87 79.06L57.1 78.66C57.2 78.74 57.31 78.81 57.44 78.85C57.57 78.9 57.71 78.92 57.85 78.92C57.96 78.92 58.07 78.91 58.17 78.87C58.25 78.84 58.33 78.79 58.38 78.72C58.43 78.66 58.46 78.59 58.46 78.51C58.46 78.45 58.45 78.39 58.43 78.34C58.4 78.29 58.37 78.25 58.33 78.21C58.24 78.15 58.1 78.11 57.92 78.11L57.38 78.11L57.38 77.72L57.88 77.72C57.97 77.72 58.06 77.7 58.14 77.67C58.21 77.65 58.27 77.6 58.32 77.54C58.36 77.49 58.38 77.42 58.38 77.34C58.38 77.28 58.36 77.21 58.32 77.15C58.27 77.1 58.21 77.06 58.14 77.04C58.05 77.01 57.95 76.99 57.85 77C57.73 77 57.61 77.02 57.49 77.06C57.38 77.1 57.28 77.15 57.19 77.23L56.96 76.86C57.08 76.75 57.23 76.67 57.38 76.62C57.56 76.56 57.74 76.53 57.92 76.53C58.09 76.53 58.27 76.56 58.43 76.62C58.57 76.67 58.68 76.75 58.77 76.87C58.84 76.98 58.89 77.12 58.88 77.26C58.88 77.34 58.86 77.42 58.83 77.5C58.79 77.57 58.74 77.65 58.68 77.71C58.62 77.77 58.55 77.81 58.48 77.85C58.62 77.89 58.75 77.98 58.84 78.09C58.94 78.22 58.99 78.37 58.98 78.53C58.98 78.68 58.94 78.83 58.85 78.95C58.75 79.09 58.62 79.19 58.47 79.26C58.29 79.33 58.09 79.37 57.9 79.37Z" fill="#FFFFFF" fill-opacity="1.000000" fill-rule="nonzero"/>
	<path id="Vector" d="M60.23 79.31L61.03 78.18C60.84 78.14 60.67 78.05 60.54 77.91C60.42 77.77 60.36 77.6 60.37 77.41C60.37 77.26 60.41 77.1 60.49 76.97C60.58 76.84 60.7 76.75 60.84 76.69C61 76.62 61.18 76.59 61.36 76.59L62.37 76.59L62.37 79.3L61.87 79.3L61.87 78.24L61.54 78.24L60.82 79.3L60.23 79.31ZM61.37 77.83L61.87 77.83L61.87 77.01L61.39 77.01C61.26 77.01 61.13 77.04 61.02 77.12C60.97 77.15 60.93 77.2 60.91 77.25C60.89 77.3 60.88 77.36 60.88 77.41C60.88 77.47 60.89 77.53 60.91 77.58C60.93 77.64 60.96 77.69 61 77.72C61.09 77.8 61.21 77.83 61.37 77.83L61.37 77.83Z" fill="#FFFFFF" fill-opacity="1.000000" fill-rule="nonzero"/>
	<path id="Vector" d="M63.05 79.31L63.05 76.59L65.3 76.59L65.3 79.31L64.79 79.31L64.79 77.05L63.56 77.05L63.56 79.31L63.05 79.31Z" fill="#FFFFFF" fill-opacity="1.000000" fill-rule="nonzero"/>
	<path id="Vector" d="M67.25 79.37C67.05 79.37 66.86 79.33 66.68 79.26C66.51 79.19 66.35 79.09 66.22 78.96C66.09 78.83 65.99 78.68 65.92 78.51C65.78 78.15 65.78 77.75 65.92 77.39C65.99 77.22 66.09 77.07 66.22 76.94C66.35 76.81 66.51 76.71 66.68 76.64C66.86 76.57 67.05 76.53 67.25 76.53C67.44 76.53 67.64 76.57 67.82 76.64C67.99 76.71 68.15 76.82 68.28 76.95C68.47 77.15 68.61 77.41 68.66 77.68C68.72 77.96 68.69 78.25 68.58 78.51C68.51 78.68 68.41 78.83 68.28 78.96C68.15 79.09 67.99 79.19 67.82 79.26C67.64 79.33 67.45 79.37 67.25 79.37ZM67.25 78.89C67.37 78.89 67.49 78.87 67.61 78.82C67.72 78.78 67.81 78.72 67.9 78.63C67.98 78.55 68.05 78.45 68.09 78.34C68.14 78.21 68.16 78.08 68.16 77.95C68.16 77.78 68.12 77.6 68.04 77.45C67.96 77.31 67.85 77.2 67.71 77.12C67.57 77.04 67.41 77 67.25 77.01C67.13 77 67.01 77.03 66.89 77.07C66.78 77.11 66.68 77.18 66.6 77.26C66.52 77.35 66.45 77.45 66.41 77.56C66.36 77.68 66.34 77.81 66.34 77.95C66.34 78.12 66.38 78.29 66.46 78.45C66.54 78.58 66.65 78.7 66.79 78.77C66.93 78.85 67.09 78.89 67.25 78.89Z" fill="#FFFFFF" fill-opacity="1.000000" fill-rule="nonzero"/>
	<path id="Vector" d="M69.2 79.31L69.2 76.59L69.71 76.59L69.71 77.65L70.94 77.65L70.94 76.59L71.44 76.59L71.44 79.31L70.94 79.31L70.94 78.11L69.71 78.11L69.71 79.31L69.2 79.31Z" fill="#FFFFFF" fill-opacity="1.000000" fill-rule="nonzero"/>
	<path id="Vector" d="M72.13 79.31L72.13 76.59L72.63 76.59L72.63 78.5L73.91 76.59L74.4 76.59L74.4 79.31L73.9 79.31L73.9 77.39L72.63 79.31L72.13 79.31Z" fill="#FFFFFF" fill-opacity="1.000000" fill-rule="nonzero"/>
	<path id="Vector" d="M75.08 79.31L75.08 76.59L75.58 76.59L75.58 78.5L76.86 76.59L77.35 76.59L77.35 79.31L76.85 79.31L76.85 77.39L75.58 79.31L75.08 79.31Z" fill="#FFFFFF" fill-opacity="1.000000" fill-rule="nonzero"/>
	<path id="Vector" d="M77.97 79.93L77.81 79.71C77.91 79.66 78 79.61 78.08 79.54C78.15 79.48 78.21 79.41 78.25 79.33C78.19 79.34 78.13 79.33 78.07 79.31C78.02 79.28 77.98 79.25 77.94 79.2C77.91 79.16 77.9 79.1 77.9 79.04C77.9 79 77.9 78.96 77.92 78.92C77.93 78.88 77.96 78.85 77.99 78.82C78.02 78.79 78.05 78.77 78.09 78.75C78.13 78.74 78.18 78.73 78.22 78.73C78.27 78.73 78.32 78.74 78.36 78.76C78.4 78.77 78.44 78.8 78.48 78.84C78.55 78.92 78.58 79.02 78.58 79.12C78.58 79.22 78.55 79.32 78.51 79.41C78.46 79.51 78.39 79.6 78.31 79.68C78.21 79.78 78.1 79.86 77.97 79.93Z" fill="#FFFFFF" fill-opacity="1.000000" fill-rule="nonzero"/>
	<path id="Vector" d="M80.03 79.31L80.03 76.59L80.54 76.59L80.54 77.65L81.04 77.65L81.04 78.11L80.54 78.11L80.54 79.31L80.03 79.31ZM81.71 79.31L80.6 77.88L81.59 76.59L82.22 76.59L81.22 77.88L82.36 79.31L81.71 79.31Z" fill="#FFFFFF" fill-opacity="1.000000" fill-rule="nonzero"/>
	<path id="Vector" d="M83.85 79.37C83.66 79.37 83.46 79.33 83.28 79.26C83.11 79.19 82.96 79.09 82.82 78.96C82.69 78.83 82.59 78.68 82.52 78.51C82.38 78.15 82.38 77.75 82.52 77.39C82.59 77.22 82.7 77.07 82.82 76.94C82.96 76.81 83.11 76.71 83.28 76.64C83.46 76.57 83.66 76.53 83.85 76.53C84.05 76.53 84.24 76.57 84.42 76.64C84.59 76.71 84.75 76.82 84.88 76.95C85.08 77.15 85.21 77.41 85.26 77.68C85.32 77.96 85.29 78.25 85.18 78.51C85.11 78.68 85.01 78.83 84.88 78.96C84.75 79.09 84.59 79.19 84.42 79.26C84.24 79.33 84.05 79.37 83.85 79.37ZM83.85 78.89C83.98 78.89 84.1 78.87 84.21 78.82C84.32 78.78 84.42 78.72 84.5 78.63C84.59 78.55 84.65 78.45 84.69 78.34C84.74 78.21 84.76 78.08 84.76 77.95C84.77 77.78 84.72 77.6 84.64 77.45C84.56 77.31 84.45 77.2 84.31 77.12C84.17 77.04 84.01 77 83.85 77.01C83.73 77 83.61 77.03 83.49 77.07C83.39 77.12 83.29 77.18 83.21 77.26C83.12 77.35 83.06 77.45 83.01 77.56C82.97 77.68 82.94 77.81 82.94 77.95C82.94 78.12 82.98 78.29 83.06 78.45C83.14 78.58 83.25 78.7 83.39 78.77C83.53 78.85 83.69 78.89 83.85 78.89Z" fill="#FFFFFF" fill-opacity="1.000000" fill-rule="nonzero"/>
	<path id="Vector" d="M85.8 79.31L85.8 76.59L86.82 76.59C87 76.59 87.18 76.62 87.34 76.7C87.49 76.76 87.61 76.86 87.7 76.99C87.79 77.13 87.83 77.29 87.83 77.45C87.83 77.61 87.79 77.77 87.71 77.91C87.63 78.04 87.51 78.15 87.36 78.2C87.19 78.28 87 78.31 86.81 78.3L86.31 78.3L86.31 79.31L85.8 79.31ZM86.31 77.87L86.81 77.87C86.94 77.88 87.07 77.85 87.19 77.77C87.28 77.71 87.32 77.6 87.32 77.46C87.33 77.4 87.32 77.34 87.29 77.28C87.27 77.23 87.23 77.18 87.18 77.14C87.08 77.06 86.95 77.02 86.81 77.03L86.31 77.03L86.31 77.87Z" fill="#FFFFFF" fill-opacity="1.000000" fill-rule="nonzero"/>
	<path id="Vector" d="M88.3 79.31L88.3 76.59L90.1 76.59L90.1 77.04L88.8 77.04L88.8 77.69L89.91 77.69L89.91 78.11L88.8 78.11L88.8 78.86L90.11 78.86L90.11 79.31L88.3 79.31Z" fill="#FFFFFF" fill-opacity="1.000000" fill-rule="nonzero"/>
	<path id="Vector" d="M90.7 79.31L90.7 76.59L91.2 76.59L91.2 78.5L92.47 76.59L92.97 76.59L92.97 79.31L92.47 79.31L92.47 77.39L91.19 79.31L90.7 79.31Z" fill="#FFFFFF" fill-opacity="1.000000" fill-rule="nonzero"/>
	<path id="Vector" d="M94.59 79.31L94.59 76.59L95.08 76.59L95.08 78.5L96.36 76.59L96.85 76.59L96.85 79.31L96.35 79.31L96.35 77.39L95.08 79.31L94.59 79.31Z" fill="#FFFFFF" fill-opacity="1.000000" fill-rule="nonzero"/>
	<path id="Vector" d="M98.47 79.31L98.47 76.59L98.97 76.59L98.97 77.65L99.48 77.65L99.48 78.11L98.97 78.11L98.97 79.31L98.47 79.31ZM100.15 79.31L99.04 77.88L100.03 76.59L100.65 76.59L99.65 77.88L100.79 79.31L100.15 79.31Z" fill="#FFFFFF" fill-opacity="1.000000" fill-rule="nonzero"/>
	<path id="Vector" d="M101.21 79.31L101.21 76.59L101.71 76.59L101.71 78.5L102.99 76.59L103.48 76.59L103.48 79.31L102.98 79.31L102.98 77.39L101.71 79.31L101.21 79.31Z" fill="#FFFFFF" fill-opacity="1.000000" fill-rule="nonzero"/>
	<path id="Vector" d="M104.67 79.31L104.67 77.05L103.91 77.05L103.91 76.59L105.92 76.59L105.92 77.05L105.17 77.05L105.17 79.31L104.67 79.31Z" fill="#FFFFFF" fill-opacity="1.000000" fill-rule="nonzero"/>
	<path id="Vector" d="M105.88 79.31L106.92 76.59L107.48 76.59L108.54 79.31L107.98 79.31L107.75 78.69L106.65 78.69L106.43 79.31L105.88 79.31ZM106.78 78.26L107.62 78.26L107.19 77.16L106.78 78.26Z" fill="#FFFFFF" fill-opacity="1.000000" fill-rule="nonzero"/>
	<path id="Vector" d="M108.7 79.31L109.5 78.18C109.32 78.14 109.15 78.05 109.02 77.91C108.9 77.77 108.84 77.6 108.84 77.41C108.84 77.26 108.88 77.1 108.96 76.97C109.05 76.84 109.17 76.75 109.31 76.69C109.47 76.62 109.65 76.59 109.83 76.59L110.84 76.59L110.84 79.3L110.34 79.3L110.34 78.24L110.01 78.24L109.29 79.3L108.7 79.31ZM109.84 77.83L110.34 77.83L110.34 77.01L109.87 77.01C109.73 77.01 109.6 77.04 109.49 77.12C109.44 77.15 109.41 77.2 109.38 77.25C109.36 77.3 109.35 77.36 109.35 77.41C109.35 77.47 109.36 77.53 109.38 77.58C109.4 77.64 109.43 77.69 109.48 77.72C109.56 77.8 109.68 77.83 109.84 77.83L109.84 77.83Z" fill="#FFFFFF" fill-opacity="1.000000" fill-rule="nonzero"/>
	<path id="Vector" d="M55.54 0L21.19 56.42L35.36 52.41L39.07 52.48C39.19 52.48 39.3 52.46 39.41 52.41C39.52 52.37 39.62 52.3 39.7 52.21C40.13 51.76 40.96 50.85 41.21 50.31C41.21 50.31 40.52 49.42 39.8 49.12C39.52 49.01 38.72 48.8 37.81 48.61C36.33 48.31 34.57 48.05 34.27 48.27L34.49 42.9C34.59 43.03 34.71 43.14 34.85 43.22C35.59 43.62 37.12 44.33 39.38 44.67C39.38 44.67 39.7 44.72 40.17 44.73C40.71 44.75 41.46 44.72 42.13 44.55C41.84 43.9 41.63 43.23 41.51 42.53C41.5 42.47 41.49 42.4 41.48 42.33C41.48 42.33 35.42 41.35 34.68 40.59L38.07 36.85C38.07 36.85 38.43 34 40.48 32.05C40.02 33.03 39.67 34.04 39.43 35.09C41.56 34.92 43.95 34.83 46.23 34.77C51.15 34.65 55.54 34.73 55.54 34.73C55.54 34.73 59.93 34.65 64.84 34.77C67.13 34.83 69.52 34.92 71.65 35.09C71.41 34.04 71.05 33.03 70.6 32.06C72.65 34.01 73.01 36.85 73.01 36.85L76.4 40.59C75.66 41.35 69.6 42.33 69.6 42.33C69.59 42.4 69.58 42.47 69.57 42.53C69.45 43.23 69.24 43.9 68.95 44.55C69.62 44.72 70.36 44.75 70.91 44.73C71.38 44.72 71.7 44.67 71.7 44.67C73.96 44.33 75.49 43.62 76.22 43.22C76.36 43.14 76.49 43.04 76.58 42.91L76.81 48.27C76.5 48.05 74.74 48.31 73.27 48.61C72.35 48.8 71.55 49.01 71.27 49.12C70.56 49.42 69.86 50.31 69.86 50.31C70.12 50.85 70.95 51.76 71.38 52.21C71.46 52.3 71.55 52.37 71.66 52.41C71.77 52.46 71.89 52.48 72.01 52.48L75.72 52.41L89.89 56.42L55.54 0ZM51.16 26.67L55.54 19.49L59.9 26.65C56.82 26.58 53.25 26.63 51.16 26.67Z" fill="#FFFFFF" fill-opacity="1.000000" fill-rule="nonzero"/>
	<path id="Vector" d="M55.53 41.18C48.48 41.18 44.63 41.77 43.54 41.97C43.44 41.99 43.36 42.04 43.3 42.11C43.24 42.19 43.21 42.28 43.22 42.38C43.34 43.88 44.14 45.09 44.54 45.62C44.67 45.8 44.87 45.93 45.09 45.99C48.7 47.06 55.54 47.72 55.54 47.72C55.54 47.72 62.37 47.06 65.98 45.99C66.2 45.93 66.4 45.8 66.54 45.62C66.93 45.09 67.73 43.87 67.85 42.38C67.86 42.28 67.83 42.19 67.77 42.11C67.71 42.04 67.63 41.99 67.54 41.97C66.44 41.77 62.59 41.18 55.53 41.18Z" fill="#FFFFFF" fill-opacity="1.000000" fill-rule="nonzero"/>
	<path id="Vector" d="M69.72 53.42C68.99 53.06 67.72 51.45 67.19 50.74C67.11 50.63 67 50.55 66.88 50.49C66.76 50.43 66.63 50.4 66.5 50.41C65.17 50.44 60.88 50.55 55.54 50.55C50.19 50.55 45.91 50.45 44.57 50.41C44.44 50.41 44.31 50.44 44.19 50.49C44.07 50.55 43.97 50.64 43.89 50.74C43.35 51.45 42.09 53.06 41.35 53.42C40.4 53.88 34.61 53.18 34.61 53.18C34.51 53.76 34.92 53.94 34.92 53.94C36.06 54.67 55.54 54.5 55.54 54.5C55.54 54.5 75.01 54.68 76.15 53.94C76.15 53.94 76.56 53.76 76.46 53.18C76.46 53.18 70.67 53.88 69.72 53.42Z" fill="#FFFFFF" fill-opacity="1.000000" fill-rule="nonzero"/>
	<path id="Vector" d="M55.53 41.18C62.59 41.18 66.44 41.77 67.53 41.97C67.63 41.99 67.71 42.04 67.77 42.11C67.83 42.19 67.86 42.28 67.85 42.38C67.73 43.88 66.93 45.09 66.53 45.62C66.4 45.8 66.2 45.93 65.98 45.99C62.37 47.06 55.53 47.72 55.53 47.72C55.53 47.72 48.7 47.06 45.09 45.99C44.87 45.93 44.67 45.8 44.53 45.62C44.14 45.09 43.34 43.87 43.22 42.38C43.21 42.28 43.24 42.19 43.3 42.11C43.36 42.04 43.44 41.99 43.54 41.97C44.63 41.77 48.48 41.18 55.53 41.18Z" fill="#FFFFFF" fill-opacity="1.000000" fill-rule="nonzero"/>
	<path id="Vector" d="M41.35 53.42C42.09 53.06 43.35 51.45 43.89 50.74C43.97 50.63 44.07 50.55 44.19 50.49C44.31 50.43 44.44 50.4 44.57 50.41C45.91 50.44 50.19 50.55 55.54 50.55C60.88 50.55 65.17 50.44 66.5 50.41C66.63 50.4 66.76 50.43 66.88 50.49C67 50.55 67.11 50.63 67.19 50.74C67.72 51.45 68.99 53.06 69.72 53.42C70.67 53.88 76.46 53.18 76.46 53.18C76.56 53.76 76.15 53.94 76.15 53.94C75.01 54.68 55.54 54.5 55.54 54.5C55.54 54.5 36.06 54.68 34.92 53.94C34.92 53.94 34.51 53.76 34.61 53.18C34.61 53.18 40.4 53.88 41.35 53.42Z" fill="#FFFFFF" fill-opacity="1.000000" fill-rule="nonzero"/>
</svg>
