<svg width="97.000000" height="70.000000" viewBox="0 0 97 70" fill="none" xmlns="http://www.w3.org/2000/svg" xmlns:xlink="http://www.w3.org/1999/xlink">
	<desc>
			Created with Pixso.
	</desc>
	<defs/>
	<path id="Vector" d="M8.48 58.03L8.48 65.15L6.56 65.15L6.56 62.17L1.92 62.17L1.92 65.15L0 65.15L0 58.03C0 57.74 0.05 57.46 0.16 57.19C0.27 56.92 0.44 56.68 0.64 56.48C0.85 56.27 1.09 56.11 1.36 56C1.62 55.89 1.91 55.83 2.2 55.83L6.28 55.83C6.86 55.83 7.42 56.06 7.84 56.48C8.25 56.89 8.48 57.45 8.48 58.03ZM6.56 60.25L6.56 58.33C6.56 58.25 6.54 58.18 6.52 58.11C6.49 58.04 6.44 57.97 6.39 57.92C6.34 57.87 6.27 57.82 6.2 57.8C6.13 57.77 6.06 57.75 5.98 57.75L2.49 57.75C2.42 57.75 2.34 57.77 2.27 57.8C2.2 57.82 2.14 57.87 2.08 57.92C2.03 57.97 1.99 58.04 1.96 58.11C1.93 58.18 1.92 58.25 1.92 58.33L1.92 60.25L6.56 60.25Z" fill="#1A1A1A" fill-opacity="1.000000" fill-rule="nonzero"/>
	<path id="Vector" d="M16.36 63.06C16.41 63.01 16.45 62.95 16.48 62.88C16.51 62.81 16.53 62.73 16.53 62.66L16.53 55.83L18.45 55.83L18.45 62.95C18.45 63.24 18.39 63.53 18.28 63.79C18.17 64.06 18.01 64.3 17.8 64.51C17.6 64.71 17.36 64.88 17.09 64.99C16.82 65.1 16.53 65.15 16.24 65.15L12.17 65.15C11.58 65.15 11.02 64.92 10.61 64.51C10.2 64.1 9.96 63.54 9.96 62.95L9.96 55.83L11.89 55.83L11.89 62.66C11.89 62.81 11.95 62.96 12.05 63.06C12.16 63.17 12.31 63.23 12.46 63.23L15.95 63.23C16.03 63.23 16.1 63.22 16.17 63.19C16.24 63.16 16.3 63.12 16.36 63.06Z" fill="#1A1A1A" fill-opacity="1.000000" fill-rule="nonzero"/>
	<path id="Vector" d="M28.05 57.75L24.63 57.75L24.63 65.15L22.71 65.15L22.71 57.75L19.29 57.75L19.29 55.83L28.05 55.83L28.05 57.75Z" fill="#1A1A1A" fill-opacity="1.000000" fill-rule="nonzero"/>
	<path id="Vector" d="M31.02 55.83L35.94 55.83C36.23 55.83 36.51 55.89 36.77 56C37.03 56.1 37.27 56.26 37.47 56.46C37.67 56.66 37.83 56.9 37.94 57.16C38.05 57.43 38.1 57.71 38.1 57.99L38.1 62.99C38.1 63.28 38.05 63.56 37.94 63.82C37.83 64.08 37.67 64.32 37.47 64.52C37.27 64.72 37.03 64.88 36.77 64.99C36.51 65.1 36.23 65.15 35.94 65.15L31.02 65.15C30.45 65.15 29.9 64.93 29.49 64.52C29.09 64.12 28.86 63.57 28.86 62.99L28.86 57.99C28.86 57.42 29.09 56.87 29.49 56.46C29.9 56.06 30.45 55.83 31.02 55.83ZM31.38 63.23L35.58 63.23C35.74 63.23 35.89 63.17 36.01 63.06C36.12 62.94 36.18 62.79 36.18 62.63L36.18 58.36C36.18 58.2 36.12 58.04 36.01 57.93C35.89 57.81 35.74 57.75 35.58 57.75L31.38 57.75C31.22 57.75 31.07 57.81 30.96 57.93C30.84 58.04 30.78 58.2 30.78 58.36L30.78 62.63C30.78 62.79 30.84 62.94 30.96 63.06C31.07 63.17 31.22 63.23 31.38 63.23Z" fill="#1A1A1A" fill-opacity="1.000000" fill-rule="nonzero"/>
	<path id="Vector" d="M41.57 63.06C41.67 63.17 41.82 63.23 41.97 63.23L47.76 63.23L47.76 65.15L41.68 65.15C41.39 65.15 41.1 65.1 40.84 64.99C40.57 64.88 40.33 64.71 40.12 64.51C39.92 64.3 39.75 64.06 39.64 63.79C39.53 63.53 39.48 63.24 39.48 62.95L39.48 58.03C39.48 57.74 39.53 57.46 39.64 57.19C39.75 56.92 39.92 56.68 40.12 56.48C40.33 56.27 40.57 56.11 40.84 56C41.1 55.89 41.39 55.83 41.68 55.83L47.64 55.83L47.64 57.75L41.97 57.75C41.9 57.75 41.82 57.77 41.75 57.8C41.68 57.82 41.62 57.87 41.57 57.92C41.51 57.97 41.47 58.04 41.44 58.11C41.41 58.18 41.4 58.25 41.4 58.33L41.4 62.66C41.4 62.81 41.46 62.96 41.57 63.06Z" fill="#1A1A1A" fill-opacity="1.000000" fill-rule="nonzero"/>
	<path id="Vector" d="M57.21 63.23L57.21 65.15L48.92 65.15L48.92 55.83L57.09 55.83L57.09 57.75L50.85 57.75L50.85 59.53L56.73 59.53L56.73 61.45L50.85 61.45L50.85 63.23L57.21 63.23Z" fill="#1A1A1A" fill-opacity="1.000000" fill-rule="nonzero"/>
	<path id="Vector" d="M67.76 55.83L67.76 65.15L65.38 65.15L60.48 58.82L60.48 65.15L58.56 65.15L58.56 55.83L60.72 55.83L65.84 62.47L65.84 55.83L67.76 55.83Z" fill="#1A1A1A" fill-opacity="1.000000" fill-rule="nonzero"/>
	<path id="Vector" d="M77.44 57.75L74.01 57.75L74.01 65.15L72.09 65.15L72.09 57.75L68.67 57.75L68.67 55.83L77.44 55.83L77.44 57.75Z" fill="#1A1A1A" fill-opacity="1.000000" fill-rule="nonzero"/>
	<path id="Vector" d="M86.63 63.23L86.63 65.15L78.34 65.15L78.34 55.83L86.51 55.83L86.51 57.75L80.26 57.75L80.26 59.53L86.15 59.53L86.15 61.45L80.26 61.45L80.26 63.23L86.63 63.23Z" fill="#1A1A1A" fill-opacity="1.000000" fill-rule="nonzero"/>
	<path id="Vector" d="M91.79 61.69L89.9 61.69L89.9 65.15L87.98 65.15L87.98 55.83L94.1 55.83C94.39 55.83 94.67 55.89 94.93 56C95.19 56.1 95.43 56.26 95.63 56.46C95.83 56.66 95.99 56.9 96.1 57.16C96.21 57.43 96.26 57.71 96.26 57.99L96.26 59.53C96.26 60.07 96.06 60.59 95.7 60.99C95.34 61.38 94.84 61.63 94.3 61.68L96.99 65.15L94.46 65.15L91.79 61.69ZM89.9 59.77L93.74 59.77C93.82 59.77 93.9 59.76 93.97 59.73C94.04 59.7 94.11 59.65 94.17 59.6C94.22 59.54 94.27 59.47 94.3 59.4C94.33 59.33 94.34 59.25 94.34 59.17L94.34 58.36C94.34 58.2 94.28 58.04 94.17 57.93C94.05 57.81 93.9 57.75 93.74 57.75L89.9 57.75L89.9 59.77Z" fill="#1A1A1A" fill-opacity="1.000000" fill-rule="nonzero"/>
	<path id="Vector" d="M0 69.39L0.91 67.02L1.4 67.02L2.33 69.39L1.83 69.39L1.63 68.85L0.67 68.85L0.48 69.39L0 69.39ZM0.78 68.48L1.52 68.48L1.14 67.51L0.78 68.48Z" fill="#1A1A1A" fill-opacity="1.000000" fill-rule="nonzero"/>
	<path id="Vector" d="M2.66 69.39L2.66 67.02L3.51 67.02C3.74 67.02 3.93 67.07 4.07 67.17C4.21 67.27 4.28 67.42 4.28 67.62C4.29 67.69 4.27 67.76 4.24 67.83C4.17 67.95 4.06 68.05 3.93 68.11C4.06 68.15 4.17 68.23 4.25 68.33C4.34 68.44 4.38 68.58 4.37 68.72C4.38 68.84 4.34 68.97 4.27 69.07C4.2 69.18 4.1 69.26 3.99 69.31C3.85 69.37 3.7 69.4 3.54 69.4L2.66 69.39ZM3.1 68.02L3.44 68.02C3.52 68.02 3.59 68.01 3.66 67.98C3.72 67.95 3.77 67.91 3.8 67.86C3.84 67.81 3.85 67.74 3.85 67.68C3.85 67.63 3.85 67.59 3.83 67.54C3.81 67.5 3.78 67.47 3.74 67.44C3.65 67.38 3.55 67.35 3.44 67.36L3.1 67.36L3.1 68.02ZM3.1 69.05L3.47 69.05C3.62 69.05 3.73 69.03 3.81 68.97C3.84 68.93 3.87 68.89 3.89 68.84C3.91 68.8 3.92 68.75 3.92 68.7C3.92 68.65 3.91 68.6 3.89 68.55C3.87 68.51 3.84 68.46 3.81 68.43C3.73 68.37 3.62 68.34 3.47 68.34L3.1 68.34L3.1 69.05Z" fill="#1A1A1A" fill-opacity="1.000000" fill-rule="nonzero"/>
	<path id="Vector" d="M5.28 69.39L5.28 67.42L4.62 67.42L4.62 67.02L6.38 67.02L6.38 67.42L5.72 67.42L5.72 69.39L5.28 69.39Z" fill="#1A1A1A" fill-opacity="1.000000" fill-rule="nonzero"/>
	<path id="Vector" d="M7.77 69.44C7.6 69.44 7.43 69.41 7.27 69.35C7.12 69.29 6.98 69.2 6.87 69.09C6.75 68.97 6.66 68.84 6.6 68.69C6.48 68.38 6.48 68.03 6.6 67.71C6.66 67.57 6.75 67.43 6.87 67.32C6.98 67.21 7.12 67.12 7.27 67.06C7.43 67 7.6 66.96 7.77 66.97C7.94 66.96 8.11 67 8.26 67.06C8.41 67.12 8.55 67.21 8.66 67.33C8.84 67.5 8.95 67.73 9 67.97C9.05 68.21 9.02 68.47 8.93 68.69C8.87 68.84 8.78 68.98 8.66 69.09C8.55 69.2 8.41 69.29 8.26 69.35C8.11 69.41 7.94 69.45 7.77 69.44ZM7.77 69.03C7.87 69.03 7.98 69.01 8.08 68.97C8.18 68.93 8.26 68.87 8.34 68.8C8.41 68.73 8.46 68.64 8.5 68.54C8.54 68.43 8.56 68.32 8.56 68.2C8.57 68.05 8.53 67.9 8.46 67.77C8.39 67.65 8.29 67.55 8.17 67.48C8.05 67.41 7.91 67.38 7.77 67.38C7.66 67.38 7.55 67.4 7.45 67.44C7.36 67.47 7.27 67.53 7.2 67.6C7.13 67.68 7.07 67.76 7.03 67.86C6.99 67.97 6.97 68.09 6.97 68.2C6.97 68.35 7 68.5 7.08 68.64C7.14 68.76 7.24 68.86 7.36 68.92C7.49 68.99 7.63 69.03 7.77 69.03Z" fill="#1A1A1A" fill-opacity="1.000000" fill-rule="nonzero"/>
	<path id="Vector" d="M9.48 69.39L9.48 67.02L9.9 67.02L10.85 68.57L10.68 68.57L11.58 67.02L12.01 67.02L12.01 69.39L11.58 69.39L11.58 67.59L11.66 67.62L10.9 68.9L10.59 68.9L9.8 67.62L9.87 67.59L9.88 69.39L9.48 69.39Z" fill="#1A1A1A" fill-opacity="1.000000" fill-rule="nonzero"/>
	<path id="Vector" d="M13.71 69.44C13.54 69.44 13.37 69.41 13.21 69.35C13.06 69.29 12.93 69.2 12.81 69.09C12.7 68.97 12.61 68.84 12.55 68.69C12.42 68.38 12.42 68.03 12.55 67.71C12.61 67.57 12.7 67.43 12.81 67.32C12.93 67.21 13.06 67.12 13.21 67.06C13.37 67 13.54 66.96 13.71 66.97C13.88 66.96 14.05 67 14.21 67.06C14.36 67.12 14.49 67.21 14.61 67.33C14.78 67.5 14.9 67.73 14.95 67.97C14.99 68.21 14.97 68.47 14.87 68.69C14.81 68.84 14.72 68.98 14.61 69.09C14.49 69.2 14.36 69.29 14.21 69.35C14.05 69.41 13.88 69.45 13.71 69.44ZM13.71 69.03C13.82 69.03 13.93 69.01 14.03 68.97C14.12 68.93 14.21 68.87 14.28 68.8C14.35 68.73 14.41 68.64 14.45 68.54C14.49 68.43 14.51 68.32 14.51 68.2C14.51 68.05 14.47 67.9 14.4 67.77C14.34 67.65 14.24 67.55 14.12 67.48C13.99 67.41 13.85 67.38 13.71 67.38C13.61 67.38 13.5 67.4 13.4 67.44C13.3 67.47 13.22 67.53 13.15 67.6C13.07 67.68 13.02 67.76 12.98 67.86C12.94 67.97 12.92 68.09 12.92 68.2C12.91 68.35 12.95 68.5 13.02 68.64C13.09 68.76 13.19 68.86 13.31 68.92C13.43 68.99 13.57 69.03 13.71 69.03Z" fill="#1A1A1A" fill-opacity="1.000000" fill-rule="nonzero"/>
	<path id="Vector" d="M15.42 69.39L15.42 67.02L16.96 67.02L16.96 67.4L15.86 67.4L15.86 67.99L16.27 67.99C16.53 67.99 16.74 68.05 16.9 68.16C17.06 68.28 17.13 68.46 17.13 68.69C17.14 68.83 17.1 68.96 17.03 69.07C16.96 69.18 16.85 69.27 16.73 69.31C16.59 69.37 16.43 69.4 16.27 69.4L15.42 69.39ZM15.86 69.05L16.24 69.05C16.38 69.05 16.49 69.02 16.56 68.96C16.6 68.93 16.63 68.89 16.65 68.84C16.67 68.79 16.68 68.74 16.68 68.69C16.68 68.64 16.67 68.59 16.65 68.54C16.63 68.5 16.6 68.45 16.57 68.42C16.48 68.35 16.37 68.32 16.25 68.32L15.86 68.32L15.86 69.05Z" fill="#1A1A1A" fill-opacity="1.000000" fill-rule="nonzero"/>
	<path id="Vector" d="M17.6 69.39L17.6 67.02L18.04 67.02L18.04 68.68L19.15 67.02L19.59 67.02L19.59 69.39L19.15 69.39L19.15 67.72L18.03 69.39L17.6 69.39Z" fill="#1A1A1A" fill-opacity="1.000000" fill-rule="nonzero"/>
	<path id="Vector" d="M20.12 69.44L19.96 69.03C20.03 69.01 20.1 68.98 20.16 68.95C20.21 68.91 20.26 68.87 20.29 68.81C20.33 68.75 20.36 68.67 20.38 68.59C20.4 68.48 20.42 68.36 20.42 68.25C20.43 68.11 20.44 67.94 20.44 67.74L20.44 67.02L22.14 67.02L22.14 69.39L21.7 69.39L21.7 67.42L20.86 67.42L20.86 67.72C20.86 67.96 20.85 68.17 20.83 68.35C20.82 68.51 20.8 68.66 20.76 68.81C20.73 68.92 20.69 69.02 20.62 69.12C20.57 69.2 20.5 69.26 20.41 69.32C20.32 69.37 20.22 69.41 20.12 69.44Z" fill="#1A1A1A" fill-opacity="1.000000" fill-rule="nonzero"/>
	<path id="Vector" d="M22.74 69.39L22.74 67.02L23.18 67.02L23.18 68.68L24.29 67.02L24.72 67.02L24.72 69.39L24.29 69.39L24.29 67.72L23.17 69.39L22.74 69.39Z" fill="#1A1A1A" fill-opacity="1.000000" fill-rule="nonzero"/>
	<path id="Vector" d="M26.14 69.39L26.14 67.02L28.1 67.02L28.1 69.39L27.66 69.39L27.66 67.42L26.58 67.42L26.58 69.39L26.14 69.39Z" fill="#1A1A1A" fill-opacity="1.000000" fill-rule="nonzero"/>
	<path id="Vector" d="M29.81 69.44C29.64 69.44 29.47 69.41 29.31 69.35C29.16 69.29 29.02 69.2 28.91 69.09C28.79 68.97 28.7 68.84 28.64 68.69C28.52 68.38 28.52 68.03 28.64 67.71C28.7 67.57 28.79 67.43 28.91 67.32C29.02 67.21 29.16 67.12 29.31 67.06C29.47 67 29.64 66.96 29.81 66.97C29.98 66.96 30.15 67 30.3 67.06C30.45 67.12 30.59 67.21 30.7 67.33C30.88 67.5 30.99 67.73 31.04 67.97C31.09 68.21 31.06 68.47 30.97 68.69C30.91 68.84 30.82 68.98 30.7 69.09C30.59 69.2 30.45 69.29 30.3 69.35C30.15 69.41 29.98 69.45 29.81 69.44ZM29.81 69.03C29.91 69.03 30.02 69.01 30.12 68.97C30.22 68.93 30.3 68.87 30.37 68.8C30.45 68.73 30.5 68.64 30.54 68.54C30.58 68.43 30.6 68.32 30.6 68.2C30.6 68.05 30.57 67.9 30.5 67.77C30.43 67.65 30.33 67.55 30.21 67.48C30.09 67.41 29.95 67.38 29.81 67.38C29.7 67.38 29.59 67.4 29.49 67.44C29.4 67.47 29.31 67.53 29.24 67.6C29.17 67.68 29.11 67.76 29.07 67.86C29.03 67.97 29.01 68.09 29.01 68.2C29.01 68.35 29.04 68.5 29.12 68.64C29.18 68.76 29.28 68.86 29.4 68.92C29.52 68.99 29.66 69.03 29.81 69.03Z" fill="#1A1A1A" fill-opacity="1.000000" fill-rule="nonzero"/>
	<path id="Vector" d="M33.01 69.39L33.01 67.42L32.15 67.42L32.15 67.72C32.15 67.96 32.14 68.2 32.11 68.44C32.09 68.6 32.04 68.77 31.97 68.92C31.92 69.04 31.84 69.14 31.74 69.22C31.63 69.3 31.51 69.35 31.38 69.38L31.23 69.02C31.32 69 31.4 68.96 31.48 68.91C31.55 68.86 31.6 68.78 31.63 68.7C31.67 68.58 31.7 68.45 31.7 68.32C31.72 68.16 31.73 67.96 31.73 67.72L31.73 67.01L33.45 67.01L33.45 69.39L33.01 69.39ZM31.23 69.99L31.23 69.02L31.51 69.03L31.66 68.99L33.83 68.99L33.83 69.99L33.41 69.99L33.41 69.39L31.64 69.39L31.64 69.99L31.23 69.99Z" fill="#1A1A1A" fill-opacity="1.000000" fill-rule="nonzero"/>
	<path id="Vector" d="M35.72 69.44C35.55 69.45 35.38 69.42 35.22 69.37C35.07 69.33 34.94 69.26 34.82 69.17L35.02 68.82C35.11 68.9 35.21 68.96 35.32 68.99C35.43 69.03 35.55 69.06 35.68 69.05C35.77 69.06 35.87 69.04 35.96 69.01C36.03 68.98 36.09 68.94 36.14 68.88C36.19 68.83 36.21 68.76 36.21 68.69C36.21 68.64 36.2 68.59 36.18 68.55C36.16 68.5 36.13 68.46 36.09 68.43C36.02 68.37 35.9 68.35 35.74 68.35L35.27 68.35L35.27 68L35.7 68C35.78 68 35.86 67.99 35.94 67.96C36 67.94 36.05 67.9 36.09 67.85C36.12 67.8 36.14 67.74 36.14 67.67C36.14 67.61 36.12 67.55 36.09 67.51C36.05 67.46 35.99 67.42 35.93 67.4C35.85 67.38 35.77 67.37 35.68 67.37C35.57 67.37 35.47 67.39 35.36 67.42C35.27 67.46 35.18 67.51 35.1 67.57L34.9 67.25C35.01 67.15 35.13 67.08 35.27 67.04C35.42 66.99 35.58 66.96 35.74 66.96C35.89 66.96 36.04 66.99 36.19 67.04C36.3 67.08 36.41 67.16 36.48 67.26C36.55 67.36 36.58 67.47 36.58 67.6C36.58 67.67 36.56 67.74 36.53 67.81C36.5 67.87 36.46 67.94 36.4 67.99C36.35 68.04 36.29 68.08 36.23 68.11C36.35 68.15 36.46 68.23 36.55 68.33C36.63 68.44 36.68 68.57 36.67 68.71C36.67 68.84 36.63 68.97 36.55 69.08C36.47 69.2 36.35 69.29 36.22 69.35C36.06 69.41 35.89 69.45 35.72 69.44Z" fill="#1A1A1A" fill-opacity="1.000000" fill-rule="nonzero"/>
	<path id="Vector" d="M36.86 69.39L37.77 67.02L38.27 67.02L39.2 69.39L38.7 69.39L38.5 68.85L37.54 68.85L37.35 69.39L36.86 69.39ZM37.65 68.48L38.39 68.48L38.01 67.51L37.65 68.48Z" fill="#1A1A1A" fill-opacity="1.000000" fill-rule="nonzero"/>
	<path id="Vector" d="M39.52 69.39L39.52 67.02L39.96 67.02L39.96 67.94L40.41 67.94L40.41 68.35L39.96 68.35L39.96 69.39L39.52 69.39ZM40.99 69.39L40.02 68.15L40.89 67.02L41.43 67.02L40.56 68.14L41.56 69.39L40.99 69.39Z" fill="#1A1A1A" fill-opacity="1.000000" fill-rule="nonzero"/>
	<path id="Vector" d="M41.67 69.39L42.58 67.02L43.08 67.02L44.01 69.39L43.51 69.39L43.31 68.85L42.35 68.85L42.16 69.39L41.67 69.39ZM42.46 68.48L43.19 68.48L42.82 67.51L42.46 68.48Z" fill="#1A1A1A" fill-opacity="1.000000" fill-rule="nonzero"/>
	<path id="Vector" d="M45.02 69.44C44.85 69.45 44.68 69.42 44.52 69.37C44.37 69.33 44.24 69.26 44.12 69.17L44.32 68.82C44.4 68.9 44.5 68.96 44.61 68.99C44.73 69.03 44.85 69.06 44.97 69.05C45.07 69.06 45.16 69.04 45.26 69.01C45.33 68.98 45.39 68.94 45.44 68.88C45.48 68.83 45.51 68.76 45.51 68.69C45.51 68.64 45.5 68.59 45.48 68.55C45.46 68.5 45.43 68.46 45.39 68.43C45.31 68.38 45.19 68.35 45.03 68.35L44.56 68.35L44.56 68L45 68C45.08 68 45.16 67.99 45.23 67.96C45.29 67.94 45.35 67.9 45.38 67.85C45.42 67.8 45.44 67.74 45.44 67.67C45.44 67.61 45.42 67.56 45.38 67.51C45.34 67.46 45.29 67.42 45.23 67.4C45.15 67.38 45.06 67.37 44.98 67.37C44.87 67.37 44.76 67.39 44.66 67.42C44.56 67.46 44.48 67.51 44.4 67.58L44.19 67.25C44.3 67.16 44.43 67.08 44.57 67.04C44.72 66.99 44.88 66.97 45.04 66.97C45.19 66.96 45.34 66.99 45.48 67.04C45.6 67.08 45.7 67.16 45.78 67.26C45.84 67.36 45.88 67.48 45.88 67.6C45.88 67.67 45.86 67.74 45.83 67.81C45.8 67.88 45.75 67.94 45.7 67.99C45.65 68.04 45.59 68.09 45.52 68.12C45.65 68.15 45.76 68.23 45.84 68.33C45.93 68.44 45.97 68.57 45.97 68.71C45.97 68.84 45.93 68.98 45.85 69.08C45.76 69.2 45.65 69.29 45.52 69.35C45.36 69.42 45.19 69.45 45.02 69.44Z" fill="#1A1A1A" fill-opacity="1.000000" fill-rule="nonzero"/>
	<path id="Vector" d="M47.4 69.39L47.4 67.02L47.83 67.02L47.83 68.68L48.95 67.02L49.38 67.02L49.38 69.39L48.94 69.39L48.94 67.72L47.83 69.39L47.4 69.39Z" fill="#1A1A1A" fill-opacity="1.000000" fill-rule="nonzero"/>
	<path id="Vector" d="M50.66 69.44C50.49 69.45 50.32 69.42 50.16 69.37C50.02 69.33 49.88 69.26 49.76 69.17L49.96 68.82C50.05 68.9 50.15 68.96 50.26 68.99C50.37 69.03 50.5 69.06 50.62 69.05C50.71 69.06 50.81 69.04 50.9 69.01C50.97 68.98 51.04 68.94 51.08 68.88C51.13 68.83 51.15 68.76 51.15 68.69C51.15 68.64 51.14 68.59 51.12 68.55C51.1 68.5 51.07 68.46 51.03 68.43C50.96 68.38 50.84 68.35 50.68 68.35L50.21 68.35L50.21 68L50.64 68C50.72 68 50.8 67.99 50.88 67.96C50.94 67.94 50.99 67.9 51.03 67.85C51.06 67.8 51.08 67.74 51.08 67.67C51.08 67.61 51.06 67.56 51.03 67.51C50.99 67.46 50.93 67.42 50.87 67.4C50.79 67.38 50.71 67.37 50.62 67.37C50.51 67.37 50.41 67.39 50.3 67.42C50.21 67.46 50.12 67.51 50.04 67.57L49.84 67.25C49.95 67.16 50.07 67.08 50.21 67.04C50.36 66.99 50.52 66.96 50.68 66.97C50.83 66.96 50.98 66.99 51.13 67.04C51.24 67.08 51.35 67.16 51.42 67.26C51.49 67.36 51.52 67.48 51.52 67.6C51.52 67.67 51.5 67.74 51.47 67.81C51.44 67.88 51.39 67.94 51.34 67.99C51.29 68.04 51.23 68.08 51.17 68.11C51.29 68.15 51.4 68.23 51.49 68.33C51.57 68.44 51.62 68.57 51.61 68.71C51.61 68.84 51.57 68.97 51.49 69.08C51.41 69.2 51.29 69.29 51.16 69.35C51 69.42 50.83 69.45 50.66 69.44Z" fill="#1A1A1A" fill-opacity="1.000000" fill-rule="nonzero"/>
	<path id="Vector" d="M52.7 69.39L53.4 68.4C53.24 68.37 53.09 68.29 52.97 68.17C52.87 68.05 52.82 67.89 52.82 67.73C52.82 67.6 52.86 67.46 52.93 67.35C53 67.24 53.11 67.15 53.23 67.1C53.37 67.04 53.53 67.01 53.69 67.01L54.57 67.01L54.57 69.39L54.13 69.39L54.13 68.46L53.84 68.46L53.21 69.39L52.7 69.39ZM53.7 68.1L54.13 68.1L54.13 67.39L53.72 67.39C53.6 67.38 53.49 67.41 53.39 67.47C53.35 67.5 53.32 67.54 53.3 67.59C53.27 67.64 53.27 67.69 53.27 67.74C53.27 67.79 53.27 67.84 53.29 67.88C53.31 67.93 53.34 67.97 53.38 68.01C53.45 68.07 53.56 68.1 53.7 68.1L53.7 68.1Z" fill="#1A1A1A" fill-opacity="1.000000" fill-rule="nonzero"/>
	<path id="Vector" d="M55.17 69.39L55.17 67.02L57.13 67.02L57.13 69.39L56.69 69.39L56.69 67.42L55.61 67.42L55.61 69.39L55.17 69.39Z" fill="#1A1A1A" fill-opacity="1.000000" fill-rule="nonzero"/>
	<path id="Vector" d="M58.84 69.44C58.67 69.44 58.5 69.41 58.34 69.35C58.19 69.29 58.06 69.2 57.94 69.09C57.83 68.97 57.74 68.84 57.68 68.69C57.55 68.38 57.55 68.03 57.68 67.71C57.74 67.57 57.83 67.43 57.94 67.32C58.06 67.21 58.19 67.12 58.34 67.06C58.5 67 58.67 66.96 58.84 66.97C59.01 66.96 59.18 67 59.34 67.06C59.49 67.12 59.63 67.21 59.74 67.33C59.91 67.5 60.03 67.73 60.08 67.97C60.12 68.22 60.1 68.47 60 68.7C59.94 68.84 59.85 68.98 59.74 69.09C59.63 69.2 59.49 69.29 59.34 69.35C59.18 69.41 59.01 69.45 58.84 69.44ZM58.84 69.03C58.95 69.03 59.06 69.01 59.15 68.97C59.25 68.93 59.34 68.87 59.41 68.8C59.48 68.73 59.54 68.64 59.58 68.54C59.62 68.43 59.64 68.32 59.64 68.2C59.64 68.05 59.6 67.9 59.53 67.77C59.46 67.65 59.37 67.55 59.25 67.48C59.12 67.41 58.98 67.38 58.84 67.38C58.73 67.38 58.63 67.4 58.53 67.44C58.43 67.47 58.35 67.53 58.28 67.6C58.2 67.68 58.14 67.76 58.11 67.86C58.07 67.97 58.04 68.09 58.05 68.2C58.04 68.35 58.08 68.5 58.15 68.64C58.22 68.76 58.32 68.86 58.44 68.92C58.56 68.99 58.7 69.03 58.84 69.03Z" fill="#1A1A1A" fill-opacity="1.000000" fill-rule="nonzero"/>
	<path id="Vector" d="M60.55 69.39L60.55 67.02L60.99 67.02L60.99 67.94L62.07 67.94L62.07 67.02L62.51 67.02L62.51 69.39L62.07 69.39L62.07 68.35L60.99 68.35L60.99 69.39L60.55 69.39Z" fill="#1A1A1A" fill-opacity="1.000000" fill-rule="nonzero"/>
	<path id="Vector" d="M63.11 69.39L63.11 67.02L63.55 67.02L63.55 68.68L64.66 67.02L65.1 67.02L65.1 69.39L64.66 69.39L64.66 67.72L63.54 69.39L63.11 69.39Z" fill="#1A1A1A" fill-opacity="1.000000" fill-rule="nonzero"/>
	<path id="Vector" d="M65.69 69.39L65.69 67.02L66.13 67.02L66.13 68.68L67.25 67.02L67.68 67.02L67.68 69.39L67.24 69.39L67.24 67.72L66.13 69.39L65.69 69.39Z" fill="#1A1A1A" fill-opacity="1.000000" fill-rule="nonzero"/>
	<path id="Vector" d="M68.22 69.94L68.08 69.74C68.17 69.7 68.25 69.65 68.32 69.59C68.38 69.54 68.43 69.48 68.46 69.42C68.41 69.42 68.36 69.41 68.31 69.39C68.26 69.37 68.23 69.34 68.2 69.3C68.17 69.26 68.16 69.21 68.16 69.16C68.16 69.12 68.16 69.09 68.18 69.05C68.19 69.02 68.21 68.99 68.24 68.96C68.26 68.94 68.29 68.92 68.33 68.91C68.36 68.89 68.4 68.89 68.44 68.89C68.48 68.89 68.52 68.89 68.56 68.91C68.6 68.93 68.64 68.95 68.66 68.98C68.72 69.05 68.76 69.14 68.75 69.23C68.75 69.32 68.73 69.4 68.69 69.48C68.65 69.57 68.59 69.65 68.52 69.72C68.43 69.8 68.33 69.88 68.22 69.94Z" fill="#1A1A1A" fill-opacity="1.000000" fill-rule="nonzero"/>
	<path id="Vector" d="M70.03 69.39L70.03 67.02L70.47 67.02L70.47 67.94L70.91 67.94L70.91 68.35L70.47 68.35L70.47 69.39L70.03 69.39ZM71.5 69.39L70.53 68.15L71.39 67.02L71.94 67.02L71.06 68.14L72.06 69.39L71.5 69.39Z" fill="#1A1A1A" fill-opacity="1.000000" fill-rule="nonzero"/>
	<path id="Vector" d="M73.37 69.44C73.2 69.44 73.03 69.41 72.87 69.35C72.72 69.29 72.58 69.2 72.47 69.09C72.36 68.97 72.27 68.84 72.21 68.69C72.08 68.38 72.08 68.03 72.21 67.71C72.27 67.57 72.36 67.43 72.47 67.32C72.58 67.21 72.72 67.12 72.87 67.06C73.03 67 73.2 66.96 73.37 66.97C73.54 66.96 73.71 67 73.87 67.06C74.02 67.12 74.15 67.21 74.27 67.33C74.44 67.5 74.56 67.73 74.6 67.97C74.65 68.21 74.62 68.47 74.53 68.69C74.47 68.84 74.38 68.98 74.27 69.09C74.15 69.2 74.02 69.29 73.87 69.35C73.71 69.41 73.54 69.45 73.37 69.44ZM73.37 69.03C73.48 69.03 73.58 69.01 73.68 68.97C73.78 68.93 73.87 68.87 73.94 68.8C74.01 68.73 74.07 68.64 74.1 68.54C74.14 68.43 74.17 68.32 74.16 68.2C74.17 68.05 74.13 67.9 74.06 67.77C73.99 67.65 73.89 67.55 73.77 67.48C73.65 67.41 73.51 67.38 73.37 67.38C73.26 67.38 73.15 67.4 73.05 67.44C72.96 67.47 72.87 67.53 72.8 67.6C72.73 67.68 72.67 67.76 72.63 67.86C72.59 67.97 72.57 68.09 72.57 68.2C72.57 68.35 72.61 68.5 72.68 68.64C72.74 68.76 72.84 68.86 72.96 68.92C73.09 68.99 73.23 69.03 73.37 69.03Z" fill="#1A1A1A" fill-opacity="1.000000" fill-rule="nonzero"/>
	<path id="Vector" d="M75.08 69.39L75.08 67.02L75.97 67.02C76.12 67.01 76.28 67.04 76.42 67.11C76.55 67.16 76.66 67.25 76.74 67.36C76.81 67.48 76.85 67.62 76.85 67.77C76.85 67.91 76.82 68.05 76.74 68.17C76.67 68.29 76.57 68.38 76.44 68.43C76.29 68.49 76.12 68.52 75.96 68.51L75.52 68.51L75.52 69.39L75.08 69.39ZM75.52 68.14L75.96 68.14C76.07 68.15 76.19 68.11 76.29 68.05C76.37 67.99 76.4 67.9 76.41 67.77C76.41 67.72 76.4 67.67 76.38 67.62C76.36 67.57 76.33 67.53 76.28 67.49C76.19 67.43 76.07 67.39 75.96 67.4L75.52 67.4L75.52 68.14Z" fill="#1A1A1A" fill-opacity="1.000000" fill-rule="nonzero"/>
	<path id="Vector" d="M77.26 69.39L77.26 67.02L78.84 67.02L78.84 67.4L77.7 67.4L77.7 67.98L78.67 67.98L78.67 68.34L77.7 68.34L77.7 69L78.85 69L78.85 69.39L77.26 69.39Z" fill="#1A1A1A" fill-opacity="1.000000" fill-rule="nonzero"/>
	<path id="Vector" d="M79.36 69.39L79.36 67.02L79.8 67.02L79.8 68.68L80.91 67.02L81.35 67.02L81.35 69.39L80.91 69.39L80.91 67.72L79.79 69.39L79.36 69.39Z" fill="#1A1A1A" fill-opacity="1.000000" fill-rule="nonzero"/>
	<path id="Vector" d="M82.76 69.39L82.76 67.02L83.2 67.02L83.2 68.68L84.31 67.02L84.74 67.02L84.74 69.39L84.31 69.39L84.31 67.72L83.19 69.39L82.76 69.39Z" fill="#1A1A1A" fill-opacity="1.000000" fill-rule="nonzero"/>
	<path id="Vector" d="M86.16 69.39L86.16 67.02L86.6 67.02L86.6 67.94L87.04 67.94L87.04 68.35L86.6 68.35L86.6 69.39L86.16 69.39ZM87.62 69.39L86.65 68.15L87.52 67.02L88.07 67.02L87.19 68.14L88.19 69.39L87.62 69.39Z" fill="#1A1A1A" fill-opacity="1.000000" fill-rule="nonzero"/>
	<path id="Vector" d="M88.56 69.39L88.56 67.02L89 67.02L89 68.68L90.11 67.02L90.54 67.02L90.54 69.39L90.11 69.39L90.11 67.72L88.99 69.39L88.56 69.39Z" fill="#1A1A1A" fill-opacity="1.000000" fill-rule="nonzero"/>
	<path id="Vector" d="M91.58 69.39L91.58 67.42L90.92 67.42L90.92 67.02L92.68 67.02L92.68 67.42L92.03 67.42L92.03 69.39L91.58 69.39Z" fill="#1A1A1A" fill-opacity="1.000000" fill-rule="nonzero"/>
	<path id="Vector" d="M92.64 69.39L93.55 67.02L94.04 67.02L94.97 69.39L94.48 69.39L94.27 68.85L93.32 68.85L93.12 69.39L92.64 69.39ZM93.43 68.48L94.16 68.48L93.79 67.51L93.43 68.48Z" fill="#1A1A1A" fill-opacity="1.000000" fill-rule="nonzero"/>
	<path id="Vector" d="M95.11 69.39L95.81 68.4C95.65 68.37 95.5 68.29 95.38 68.17C95.28 68.05 95.23 67.89 95.23 67.73C95.23 67.6 95.27 67.46 95.34 67.35C95.41 67.24 95.52 67.15 95.64 67.1C95.78 67.04 95.94 67.01 96.1 67.01L96.98 67.01L96.98 69.39L96.54 69.39L96.54 68.46L96.26 68.46L95.63 69.39L95.11 69.39ZM96.11 68.1L96.54 68.1L96.54 67.39L96.13 67.39C96.01 67.38 95.9 67.41 95.8 67.47C95.76 67.5 95.73 67.54 95.71 67.59C95.68 67.64 95.68 67.69 95.68 67.74C95.68 67.79 95.68 67.84 95.7 67.88C95.72 67.93 95.75 67.97 95.79 68.01C95.86 68.07 95.97 68.1 96.11 68.1L96.11 68.1Z" fill="#1A1A1A" fill-opacity="1.000000" fill-rule="nonzero"/>
	<path id="Vector" d="M48.59 0L18.54 49.37L30.94 45.86L34.19 45.91C34.29 45.92 34.39 45.9 34.49 45.86C34.58 45.82 34.67 45.76 34.74 45.68C35.11 45.29 35.84 44.49 36.06 44.02C36.06 44.02 35.45 43.24 34.83 42.98C34.58 42.88 33.88 42.7 33.08 42.53C31.79 42.27 30.25 42.04 29.98 42.24L30.18 37.54C30.27 37.65 30.37 37.75 30.5 37.82C31.14 38.17 32.48 38.79 34.46 39.09C34.46 39.09 34.74 39.12 35.15 39.14C35.62 39.15 36.27 39.13 36.86 38.98C36.61 38.41 36.43 37.82 36.32 37.22C36.31 37.16 36.3 37.09 36.29 37.03C36.29 37.03 30.99 36.18 30.34 35.52L33.31 32.25C33.31 32.25 33.63 29.75 35.42 28.05C35.02 28.9 34.71 29.78 34.5 30.7C36.36 30.55 38.46 30.47 40.45 30.42C44.76 30.32 48.6 30.39 48.6 30.39C48.6 30.39 52.43 30.32 56.74 30.42C58.73 30.47 60.83 30.55 62.69 30.7C62.48 29.79 62.17 28.9 61.77 28.05C63.57 29.75 63.88 32.25 63.88 32.25L66.85 35.52C66.2 36.18 60.9 37.03 60.9 37.03C60.89 37.09 60.88 37.16 60.87 37.22C60.76 37.82 60.58 38.41 60.33 38.98C60.92 39.13 61.57 39.15 62.04 39.14C62.45 39.12 62.74 39.09 62.74 39.09C64.71 38.79 66.05 38.17 66.69 37.82C66.82 37.75 66.93 37.65 67.01 37.54L67.21 42.24C66.94 42.04 65.4 42.27 64.11 42.53C63.31 42.7 62.6 42.88 62.36 42.98C61.74 43.24 61.13 44.02 61.13 44.02C61.35 44.49 62.08 45.29 62.45 45.68C62.52 45.76 62.61 45.82 62.7 45.86C62.8 45.9 62.9 45.92 63.01 45.91L66.25 45.86L78.65 49.37L48.59 0ZM44.77 23.34L48.59 17.05L52.41 23.32C49.72 23.26 46.59 23.3 44.77 23.34Z" fill="#EB1C24" fill-opacity="1.000000" fill-rule="nonzero"/>
	<path id="Vector" d="M48.59 36.04C42.41 36.04 39.05 36.55 38.09 36.72C38.01 36.74 37.94 36.78 37.89 36.85C37.83 36.91 37.81 37 37.82 37.08C37.92 38.39 38.62 39.46 38.97 39.91C39.09 40.07 39.26 40.19 39.45 40.24C42.61 41.17 48.59 41.75 48.59 41.75C48.59 41.75 54.57 41.17 57.73 40.24C57.92 40.19 58.09 40.07 58.22 39.91C58.56 39.45 59.26 38.39 59.37 37.08C59.37 37 59.35 36.91 59.3 36.85C59.25 36.78 59.17 36.74 59.09 36.72C58.13 36.55 54.77 36.04 48.59 36.04Z" fill="#EB1C24" fill-opacity="1.000000" fill-rule="nonzero"/>
	<path id="Vector" d="M61 46.74C60.36 46.42 59.26 45.02 58.79 44.4C58.72 44.3 58.63 44.23 58.52 44.18C58.42 44.13 58.3 44.1 58.19 44.1C57.02 44.14 53.27 44.23 48.59 44.23C43.92 44.23 40.17 44.14 39 44.11C38.88 44.1 38.77 44.13 38.66 44.18C38.56 44.23 38.47 44.31 38.4 44.4C37.93 45.02 36.83 46.42 36.18 46.74C35.35 47.15 30.29 46.53 30.29 46.53C30.2 47.04 30.56 47.2 30.56 47.2C31.55 47.84 48.59 47.69 48.59 47.69C48.59 47.69 65.63 47.84 66.63 47.2C66.63 47.2 66.99 47.04 66.9 46.53C66.9 46.53 61.83 47.15 61 46.74Z" fill="#EB1C24" fill-opacity="1.000000" fill-rule="nonzero"/>
	<path id="Vector" d="M48.59 36.04C54.77 36.04 58.13 36.55 59.09 36.72C59.17 36.74 59.25 36.78 59.3 36.85C59.35 36.91 59.37 37 59.37 37.08C59.26 38.39 58.56 39.46 58.22 39.91C58.09 40.07 57.92 40.19 57.73 40.24C54.57 41.17 48.59 41.75 48.59 41.75C48.59 41.75 42.61 41.17 39.45 40.24C39.26 40.19 39.09 40.07 38.97 39.91C38.62 39.45 37.92 38.39 37.82 37.08C37.81 37 37.83 36.91 37.89 36.85C37.94 36.78 38.01 36.74 38.09 36.72C39.05 36.55 42.41 36.04 48.59 36.04Z" fill="#EB1C24" fill-opacity="1.000000" fill-rule="nonzero"/>
	<path id="Vector" d="M36.18 46.74C36.83 46.42 37.93 45.02 38.4 44.4C38.47 44.3 38.56 44.23 38.66 44.18C38.77 44.13 38.88 44.1 39 44.1C40.17 44.14 43.92 44.23 48.59 44.23C53.27 44.23 57.02 44.14 58.19 44.1C58.3 44.1 58.42 44.13 58.52 44.18C58.63 44.23 58.72 44.3 58.79 44.4C59.26 45.02 60.36 46.42 61 46.74C61.83 47.15 66.9 46.53 66.9 46.53C66.99 47.04 66.63 47.2 66.63 47.2C65.63 47.84 48.59 47.69 48.59 47.69C48.59 47.69 31.55 47.84 30.56 47.2C30.56 47.2 30.2 47.04 30.29 46.53C30.29 46.53 35.35 47.15 36.18 46.74Z" fill="#EB1C24" fill-opacity="1.000000" fill-rule="nonzero"/>
</svg>
