<svg width="40.000000" height="40.000000" viewBox="0 0 40 40" fill="none" xmlns="http://www.w3.org/2000/svg" xmlns:xlink="http://www.w3.org/1999/xlink">
	<desc>
			Created with Pixso.
	</desc>
	<defs/>
	<mask id="mask0_521" mask-type="alpha" maskUnits="userSpaceOnUse" x="0.000000" y="0.000000" width="40.000000" height="40.000000">
		<path id="Vector" d="M30.06 39.98C30.95 39.96 31.84 39.9 32.71 39.75C33.59 39.59 34.42 39.34 35.22 38.93C36.02 38.53 36.74 38.01 37.37 37.39C37.99 36.77 38.52 36.05 38.92 35.27C39.33 34.47 39.59 33.66 39.75 32.79C39.91 31.92 39.96 31.05 39.98 30.17C39.99 29.77 39.99 29.37 40 28.96L40 11.02C40 10.62 40 10.22 39.98 9.82C39.96 8.94 39.9 8.06 39.75 7.2C39.59 6.32 39.33 5.5 38.92 4.71C38.52 3.94 37.99 3.22 37.37 2.6C36.74 1.98 36.01 1.45 35.22 1.06C34.41 0.66 33.59 0.4 32.71 0.24C31.84 0.08 30.95 0.03 30.06 0.01C29.9 0.01 29.73 0 29.46 0L11.65 0L9.94 0.01C9.06 0.03 8.17 0.09 7.29 0.24C6.41 0.4 5.58 0.66 4.78 1.06C3.98 1.46 3.26 1.98 2.63 2.6C2.01 3.22 1.48 3.94 1.08 4.72C0.67 5.52 0.42 6.33 0.25 7.2C0.09 8.07 0.04 8.94 0.01 9.82C0 10.22 0 10.63 0 11.03L0 28.97C0 29.37 0 29.77 0.01 30.17C0.03 31.05 0.09 31.93 0.24 32.79C0.4 33.67 0.66 34.49 1.07 35.28C1.47 36.05 2 36.77 2.62 37.39C3.25 38.01 3.98 38.54 4.77 38.93C5.58 39.33 6.4 39.59 7.28 39.75C8.15 39.91 9.04 39.96 9.93 39.98C10.09 39.98 10.26 39.99 10.53 40L27.4 40L30.05 39.98L30.06 39.98Z" fill="#299400" fill-opacity="1.000000" fill-rule="nonzero"/>
	</mask>
	<g mask="url(#mask0_521)">
		<path id="Vector" d="M0 0L40 0L40 40L0 40L0 0Z" fill="#19AA1E" fill-opacity="1.000000" fill-rule="nonzero"/>
		<path id="Vector" d="M0 0L40 0L40 13.12L0 6.87L0 0Z" fill="#FFB919" fill-opacity="1.000000" fill-rule="evenodd"/>
		<path id="Vector" d="M0 35.62L40 29.37L40 40L0 40L0 35.62Z" fill="#82D714" fill-opacity="1.000000" fill-rule="evenodd"/>
		<path id="Vector" d="M0 6.08L13.96 8.26C15.7 7.16 17.76 6.56 20 6.56C23.09 6.56 25.86 7.71 27.88 9.75C28.14 10 28.38 10.27 28.61 10.55L40 12.33L40 13.91L29.76 12.31C30.52 13.77 30.93 15.4 30.93 17.06C30.93 19.2 30.45 21.33 29.46 23.48L29.43 23.55L29.01 24.45L28.02 24.45C25.96 24.45 24.6 25.06 23.71 26.15C23.01 27.01 22.6 28.16 22.47 29.42L22.46 29.46L22.44 29.66L22.43 29.75L22.42 29.92C22.37 30.48 22.33 30.95 22.31 31.34L40 28.58L40 30.16L0 36.41L0 34.83L17.7 32.06L17.69 31.71L17.69 31.61L17.68 31.56L17.68 31.48C17.67 31.05 17.63 30.5 17.56 29.83L17.55 29.7L17.53 29.48C17.4 28.22 17 27.05 16.31 26.18C15.42 25.08 14.07 24.46 12.04 24.45L11.97 24.45L10.98 24.45L10.56 23.55C9.55 21.38 9.06 19.22 9.06 17.06C9.06 14.33 10.16 11.7 12.11 9.75C12.16 9.69 12.22 9.63 12.28 9.58L0 7.66L0 6.08Z" fill="#FFFFFF" fill-opacity="1.000000" fill-rule="evenodd"/>
		<path id="Vector" d="M20 8.12C25.58 8.12 29.37 12.42 29.37 17.06C29.37 18.92 28.96 20.85 28.02 22.88C22.52 22.88 21.16 26.82 20.91 29.3L20.89 29.46C20.81 30.34 20.75 31.05 20.74 31.59L19.25 31.82L19.25 31.77C19.25 31.21 19.19 30.43 19.09 29.41L19.09 29.37C18.85 26.9 17.52 22.88 11.97 22.88C11.03 20.85 10.62 18.92 10.62 17.06C10.62 12.42 14.41 8.12 20 8.12Z" fill="#0073FA" fill-opacity="1.000000" fill-rule="evenodd"/>
	</g>
</svg>
