<svg width="40.000000" height="40.000000" viewBox="0 0 40 40" fill="none" xmlns="http://www.w3.org/2000/svg" xmlns:xlink="http://www.w3.org/1999/xlink">
	<desc>
			Created with Pixso.
	</desc>
	<defs/>
	<rect id="Rectangle 3" rx="7.000000" width="40.000000" height="40.000000" fill="#0F9AEF" fill-opacity="1.000000"/>
	<path id="Fill-6" d="M34.14 13.75C29.8 13.75 25.76 15 22.35 17.17C20.33 18.45 18.53 20.05 17.03 21.9C15.2 20.54 13.09 19.53 10.8 18.98C9.49 18.66 8.12 18.49 6.71 18.49C6.13 18.49 5.56 18.51 5 18.57C7.06 18.77 9.01 19.34 10.8 20.21C12.63 21.09 14.29 22.29 15.69 23.74C16.44 24.51 17.11 25.35 17.7 26.25C18.12 25.38 18.59 24.54 19.12 23.74C20.74 21.26 22.84 19.12 25.31 17.47C28.37 15.42 31.97 14.11 35.86 13.81C35.29 13.77 34.72 13.75 34.14 13.75Z" fill="#FFFFFF" fill-opacity="1.000000" fill-rule="evenodd"/>
</svg>
