<svg width="40.000000" height="40.000000" viewBox="0 0 40 40" fill="none" xmlns="http://www.w3.org/2000/svg" xmlns:xlink="http://www.w3.org/1999/xlink">
	<desc>
			Created with Pixso.
	</desc>
	<defs>
		<clipPath id="clip0_531">
			<rect id="Maps_v3 1" rx="-0.500000" width="39.000000" height="39.000000" transform="translate(0.500000 0.500000)" fill="white" fill-opacity="0"/>
		</clipPath>
	</defs>
	<rect id="Maps_v3 1" rx="-0.500000" width="39.000000" height="39.000000" transform="translate(0.500000 0.500000)" fill="#FFFFFF" fill-opacity="0"/>
	<g clip-path="url(#clip0_531)">
		<path id="Vector" d="M12.8 0L27.2 0C34.26 0 40 5.73 40 12.8L40 27.2C40 34.26 34.26 40 27.2 40L12.8 40C5.73 40 0 34.26 0 27.2L0 12.8C0 5.73 5.73 0 12.8 0Z" fill="#FFFFFF" fill-opacity="1.000000" fill-rule="evenodd"/>
		<path id="Vector" d="M20 4.79C17.59 4.79 15.24 5.51 13.24 6.84C11.24 8.18 9.68 10.08 8.76 12.3C7.84 14.52 7.6 16.97 8.07 19.33C8.54 21.69 9.69 23.85 11.39 25.55C13.6 27.75 18.78 30.94 19.08 34.28C19.13 34.79 19.49 35.19 20 35.19C20.5 35.19 20.86 34.79 20.91 34.28C21.21 30.94 26.39 27.75 28.6 25.55C30.3 23.85 31.45 21.69 31.92 19.33C32.39 16.97 32.15 14.52 31.23 12.3C30.31 10.08 28.75 8.18 26.75 6.84C24.75 5.51 22.4 4.79 20 4.79Z" fill="#FF4433" fill-opacity="1.000000" fill-rule="nonzero"/>
		<path id="Vector" d="M20 21.21C21.12 21.21 22.21 20.76 23 19.96C23.8 19.17 24.25 18.08 24.25 16.96C24.25 15.83 23.8 14.74 23 13.95C22.21 13.15 21.12 12.7 20 12.7C18.87 12.7 17.78 13.15 16.99 13.95C16.19 14.74 15.74 15.83 15.74 16.96C15.74 18.08 16.19 19.17 16.99 19.96C17.78 20.76 18.87 21.21 20 21.21Z" fill="#FFFFFF" fill-opacity="1.000000" fill-rule="nonzero"/>
		<path id="Vector" d="M27.2 0.79L12.8 0.79C9.61 0.79 6.56 2.06 4.31 4.31C2.06 6.56 0.8 9.61 0.8 12.8L0.8 27.2C0.8 30.38 2.06 33.43 4.31 35.68C6.56 37.93 9.61 39.2 12.8 39.2L27.2 39.2C30.38 39.2 33.43 37.93 35.68 35.68C37.93 33.43 39.2 30.38 39.2 27.2L39.2 12.8C39.2 9.61 37.93 6.56 35.68 4.31C33.43 2.06 30.38 0.79 27.2 0.79ZM12.8 0C9.4 0 6.14 1.34 3.74 3.74C1.34 6.14 0 9.4 0 12.8L0 27.2C0 30.59 1.34 33.85 3.74 36.25C6.14 38.65 9.4 40 12.8 40L27.2 40C30.59 40 33.85 38.65 36.25 36.25C38.65 33.85 40 30.59 40 27.2L40 12.8C40 9.4 38.65 6.14 36.25 3.74C33.85 1.34 30.59 0 27.2 0L12.8 0Z" fill="#000000" fill-opacity="0.120000" fill-rule="evenodd"/>
	</g>
</svg>
